<svg width="334" height="348" viewBox="0 0 334 348" fill="none" xmlns="http://www.w3.org/2000/svg">
<g clip-path="url(#clip0_449_1701)">
<path d="M227.387 0.455807C197.939 0.959807 175.235 25.0398 150.027 40.2718C111.963 63.2718 63.075 67.9438 30.923 98.6718C8.91498 119.736 -1.94902 151.448 1.12298 181.744C4.19498 212.04 20.835 240.44 44.899 259.112C60.243 271.008 78.251 279.032 96.627 285.312C115.251 291.664 134.643 296.376 154.323 296.624C181.595 296.968 208.387 288.72 233.059 277.08C250.219 268.992 266.763 259.104 280.259 245.768C293.011 233.176 302.787 217.704 309.483 201.08C326.035 159.992 323.403 112.896 309.051 70.9838C297.179 36.3198 268.155 -0.248193 227.387 0.455807Z" fill="#92E3A9"/>
<path opacity="0.7" d="M227.387 0.455807C197.939 0.959807 175.235 25.0398 150.027 40.2718C111.963 63.2718 63.075 67.9438 30.923 98.6718C8.91498 119.736 -1.94902 151.448 1.12298 181.744C4.19498 212.04 20.835 240.44 44.899 259.112C60.243 271.008 78.251 279.032 96.627 285.312C115.251 291.664 134.643 296.376 154.323 296.624C181.595 296.968 208.387 288.72 233.059 277.08C250.219 268.992 266.763 259.104 280.259 245.768C293.011 233.176 302.787 217.704 309.483 201.08C326.035 159.992 323.403 112.896 309.051 70.9838C297.179 36.3198 268.155 -0.248193 227.387 0.455807Z" fill="white"/>
<path opacity="0.1" d="M245.643 170.024C245.435 164 245.043 157.576 244.395 150.928C243.523 137.648 241.859 125.248 238.843 117.448C222.235 114.048 135.955 120.384 135.891 120.384L135.355 117.984L135.139 117.032L134.755 115.36L134.651 114.976C134.091 112.72 133.459 110.488 132.723 108.272C132.723 108.272 67.315 102.432 45.619 108.096C45.619 108.288 45.619 108.472 45.619 108.664L45.683 114.016C45.747 124.376 45.507 134.096 46.043 144.768V144.848C45.9392 144.838 45.8348 144.838 45.731 144.848C44.889 144.959 44.0944 145.301 43.4349 145.836C42.7755 146.372 42.2771 147.079 41.995 147.88C41.7797 148.501 41.7006 149.161 41.763 149.816L42.051 153.184C42.051 153.24 42.051 153.288 42.051 153.344C42.851 161.84 43.651 170.256 43.651 170.256C43.651 170.256 44.067 170.296 44.747 170.328L48.339 170.584C40.691 171.288 32.339 181.384 32.707 190.064C33.075 198.744 24.707 215.088 26.795 224.464C28.395 231.792 36.627 243.576 40.635 252.528L40.323 254.304L22.427 290.24C23.627 288.48 34.427 335.44 84.587 325.496L120.275 267.352C124.256 264.35 127.898 260.924 131.139 257.136C132.507 255.777 133.644 254.204 134.507 252.48C135.781 250.444 136.754 248.234 137.395 245.92C137.555 245.312 137.723 244.712 137.899 244.096C140.811 236.68 144.699 226.56 147.547 219.552C185.147 218.432 224.627 216.136 244.451 211.472H244.491C246.411 198.432 246.451 183.8 245.643 170.024ZM52.547 202.88C52.2366 200.714 52.0496 198.531 51.987 196.344C52.427 198.648 52.907 200.944 53.411 203.248C53.123 203.12 52.835 202.992 52.547 202.88Z" fill="#142B71"/>
<path d="M18.339 287.944C18.339 287.944 34.403 335.44 84.587 325.496C84.587 325.496 95.723 273.216 105.051 265.496C111.067 260.536 124.355 251.64 127.195 245.2C130.035 238.76 141.443 208.176 143.651 204.496C145.859 200.816 119.715 158.472 119.715 158.472L64.643 186.888L34.003 241.288C34.003 241.288 28.123 276.488 18.339 287.944Z" fill="white"/>
<path d="M33.467 245.528C33.467 245.528 29.539 274.896 16.555 290.24" stroke="#142B71" stroke-width="0.8" stroke-linecap="round" stroke-linejoin="round"/>
<path d="M84.587 325.496C84.587 325.496 95.659 274.912 105.051 265.496C105.051 265.496 126.267 253.16 130.091 238.64C132.739 228.584 137.555 216.992 139.859 211.728" stroke="#142B71" stroke-width="0.8" stroke-linecap="round" stroke-linejoin="round"/>
<path d="M89.051 213.352C88.251 212.84 101.891 223.752 102.419 238.664" stroke="#142B71" stroke-width="0.8" stroke-linecap="round" stroke-linejoin="round"/>
<path d="M237.187 204.208C192.963 214.608 50.531 213.24 50.531 213.24C49.331 210.712 47.883 204.344 46.483 196.968C43.683 182.16 41.0669 163.288 41.0669 163.288L36.3549 162.96C36.3549 162.96 35.5549 154.544 34.7549 146.048C33.9549 137.552 38.7549 137.56 38.7549 137.56L38.4109 108.152L38.3229 100.808C60.0189 95.1437 125.427 100.984 125.427 100.984L127.467 108.072L128.603 113.096L231.547 110.192C240.987 134.6 237.187 204.208 237.187 204.208Z" fill="#92E3A9"/>
<path d="M220.084 132.859L152.564 136.235C149.785 136.374 147.644 138.74 147.783 141.519L148.469 155.239C148.608 158.018 150.974 160.158 153.753 160.019L221.273 156.643C224.052 156.505 226.192 154.139 226.053 151.36L225.367 137.64C225.228 134.861 222.863 132.721 220.084 132.859Z" fill="#142B71"/>
<path d="M225.691 165.616L225.899 167.888L148.155 170.904L148.091 168.856L225.691 165.616Z" fill="#142B71"/>
<path d="M226.075 173.544L226.139 175.592L148.403 178.464L148.339 176.416L226.075 173.544Z" fill="#142B71"/>
<path opacity="0.3" d="M231.531 110.192C231.531 110.192 243.003 164.592 237.187 204.208C237.187 204.208 164.643 212.72 139.803 211.344L138.787 198.104L140.867 197.784C140.867 197.784 130.851 122.216 128.579 113.096C128.579 113.096 214.971 106.784 231.531 110.192Z" fill="#142B71"/>
<path opacity="0.8" d="M136.395 197.912L137.251 207.92C137.251 207.92 64.131 211.12 57.699 208.792C51.267 206.464 58.043 202.752 75.051 201.416C92.059 200.08 136.395 197.912 136.395 197.912Z" fill="white"/>
<path d="M92.739 155.464C96.4282 155.464 99.419 152.756 99.419 149.416C99.419 146.075 96.4282 143.368 92.739 143.368C89.0497 143.368 86.059 146.075 86.059 149.416C86.059 152.756 89.0497 155.464 92.739 155.464Z" fill="#142B71"/>
<path d="M41.067 163.28C42.574 180.203 45.7412 196.936 50.523 213.24C81.539 212.976 112.547 212.632 143.555 211.64C174.563 210.648 206.427 208.552 237.155 204.208C237.155 204.208 242.659 155.6 231.499 110.192C219.163 107.624 128.891 113.08 128.891 113.08" stroke="#142B71" stroke-width="0.8" stroke-linecap="round" stroke-linejoin="round"/>
<path d="M136.395 197.912L137.251 207.92L67.651 209.52C64.779 209.768 60.307 210.144 57.667 208.792C56.467 208.176 55.603 206.672 56.171 205.44C56.683 204.336 58.027 203.944 59.227 203.704C67.739 201.952 76.427 201.216 85.091 200.576C103.64 199.2 122.219 198.269 140.827 197.784C140.435 197.784 135.899 160.352 135.395 156.896C133.427 143.376 131.555 129.8 129.123 116.352C128.245 111.145 126.991 106.009 125.371 100.984C96.699 98.9357 66.755 97.0397 38.259 100.808C38.523 113.504 38.051 124.808 38.699 137.56" stroke="#142B71" stroke-width="0.8" stroke-linecap="round" stroke-linejoin="round"/>
<path d="M49.459 209.472C49.2877 208.954 49.1855 208.416 49.155 207.872" stroke="#142B71" stroke-width="0.8" stroke-linecap="round" stroke-linejoin="round"/>
<path d="M49.619 204.84C50.683 202.176 53.875 199.168 62.555 198.208C78.387 196.448 112.899 193.28 133.147 192.512" stroke="#142B71" stroke-width="0.8" stroke-linecap="round" stroke-linejoin="round" stroke-dasharray="3.13 3.13"/>
<path d="M134.715 192.456L136.315 192.4L136.099 190.8" stroke="#142B71" stroke-width="0.8" stroke-linecap="round" stroke-linejoin="round"/>
<path d="M135.651 187.736C132.011 161.552 127.979 135.56 123.363 109.52" stroke="#142B71" stroke-width="0.8" stroke-linecap="round" stroke-linejoin="round" stroke-dasharray="3.1 3.1"/>
<path d="M123.107 107.992L122.819 106.392L121.219 106.28" stroke="#142B71" stroke-width="0.8" stroke-linecap="round" stroke-linejoin="round"/>
<path d="M117.987 106.072C104.683 105.184 66.851 102.968 41.611 104.696" stroke="#142B71" stroke-width="0.8" stroke-linecap="round" stroke-linejoin="round" stroke-dasharray="3.26 3.26"/>
<path d="M39.979 104.816L38.379 104.944" stroke="#142B71" stroke-width="0.8" stroke-linecap="round" stroke-linejoin="round"/>
<path d="M36.355 162.96L34.443 142.56C34.3849 141.947 34.4511 141.329 34.6375 140.743C34.8239 140.156 35.1267 139.613 35.5278 139.146C35.9288 138.68 36.4199 138.298 36.9717 138.026C37.5234 137.753 38.1245 137.595 38.739 137.56C50.499 136.88 80.915 135.28 92.587 136.216C98.187 136.664 104.275 138.464 106.987 143.824C109.243 148.24 109.579 154.864 105.795 158.496C100.035 164.016 89.107 163.592 81.683 163.856C67.8589 164.384 36.363 163.08 36.355 162.96Z" stroke="#142B71" stroke-width="0.8" stroke-linecap="round" stroke-linejoin="round"/>
<path d="M108.675 150.488C108.675 149.92 111.587 162.208 100.947 166.264C90.307 170.32 41.067 169.04 41.067 169.04V163.28C41.067 163.28 75.899 164.016 81.699 163.856C87.499 163.696 108.051 165.624 108.675 150.488Z" fill="#142B71"/>
<path d="M98.443 219.128C98.443 219.128 107.147 224.224 110.403 233.8" stroke="#142B71" stroke-width="0.8" stroke-linecap="round" stroke-linejoin="round"/>
<path d="M34.683 140.624C34.683 140.624 77.3709 138.616 88.2349 138.976C99.0989 139.336 104.419 141.728 105.499 148.536C106.579 155.344 99.9949 159.584 94.7469 160.384C89.4989 161.184 36.347 161.416 36.347 161.416" stroke="#142B71" stroke-width="0.8" stroke-linecap="round" stroke-linejoin="round" stroke-dasharray="3.2 3.2"/>
<path d="M64.019 223.096C64.019 223.096 57.411 200.144 45.251 195.624C45.251 195.624 42.851 179.96 48.035 179.096C53.219 178.232 67.859 168.584 64.035 156.544C60.211 144.504 48.731 162.584 41.083 163.28C33.435 163.976 25.083 174.08 25.427 182.768C25.771 191.456 17.427 207.8 19.515 217.168C21.603 226.536 34.475 243.248 35.515 251.944" fill="white"/>
<path d="M64.019 223.096C64.019 223.096 57.411 200.144 45.251 195.624C45.251 195.624 42.851 179.96 48.035 179.096C53.219 178.232 67.859 168.584 64.035 156.544C60.211 144.504 48.731 162.584 41.083 163.28C33.435 163.976 25.083 174.08 25.427 182.768C25.771 191.456 17.427 207.8 19.515 217.168C21.603 226.536 34.475 243.248 35.515 251.944" stroke="#142B71" stroke-width="0.8" stroke-linecap="round" stroke-linejoin="round"/>
<path d="M48.011 159.752C48.011 159.752 57.171 161.416 62.147 155.6C67.123 149.784 61.395 149.416 61.395 149.416L48.011 159.752Z" fill="white" stroke="#142B71" stroke-width="0.8" stroke-linecap="round" stroke-linejoin="round"/>
<path d="M31.651 172.712C33.3231 172.827 34.94 173.357 36.355 174.256" stroke="#142B71" stroke-width="0.8" stroke-linecap="round" stroke-linejoin="round"/>
<path d="M31.371 176.04C33.0366 176.198 34.6233 176.825 35.947 177.848" stroke="#142B71" stroke-width="0.8" stroke-linecap="round" stroke-linejoin="round"/>
<path d="M56.099 206.784C56.099 206.784 95.299 204.76 105.619 205.352" stroke="#142B71" stroke-width="0.8" stroke-linecap="round" stroke-linejoin="round"/>
<path d="M96.075 202.36C96.075 202.36 105.939 201.56 112.075 202.36" stroke="#142B71" stroke-width="0.8" stroke-linecap="round" stroke-linejoin="round"/>
<path d="M121.067 205.24H137.035" stroke="#142B71" stroke-width="0.8" stroke-linecap="round" stroke-linejoin="round"/>
<path d="M130.723 117.576C130.723 117.576 200.827 111.312 228.995 114.888C228.995 114.888 236.595 128.864 234.939 200.488C203.28 204.546 171.426 206.915 139.515 207.584" stroke="#142B71" stroke-width="0.8" stroke-linecap="round" stroke-linejoin="round" stroke-dasharray="3.2 3.2"/>
<g opacity="0.1">
<path d="M320.499 216.696C318.507 208.224 315.587 205.04 312.659 202.592C312.659 202.592 312.595 197.792 308.843 195.056C307.841 194.173 306.771 193.371 305.643 192.656C302.123 190.016 298.243 187.056 298.243 187.056C296.419 181.776 293.947 175.384 291.275 169.096L291.411 170.528C288.675 163.848 285.995 157.2 285.243 154.992V154.944C286.043 157.072 286.843 159.128 287.723 161.024L277.707 125.624C277.467 124.2 277.219 122.8 276.971 121.448C276.491 117.448 275.187 109.912 272.043 109.376C271.926 109.368 271.808 109.368 271.691 109.376C271.691 109.376 267.987 107.776 267.987 114.344C263.579 115.816 261.875 119.144 261.451 123.056C261.222 124.297 261.195 125.566 261.371 126.816C261.451 128.264 261.619 129.744 261.843 131.216L247.651 112.56L246.283 110.784L228.779 87.7437L205.251 56.7037C204.376 55.5515 203.282 54.583 202.032 53.8537C200.782 53.1243 199.401 52.6483 197.967 52.4529C196.533 52.2575 195.075 52.3466 193.675 52.7149C192.276 53.0833 190.963 53.7237 189.811 54.5997L160.603 76.7837L149.203 85.4397C140.459 89.9917 142.739 98.9837 145.163 102.176L196.099 169.224C195.834 169.19 195.566 169.177 195.299 169.184C195.299 169.184 193.843 165.752 190.243 166.296C189.476 166.331 188.734 166.578 188.099 167.008C187.518 167.313 187.025 167.762 186.667 168.312C186.268 168.793 185.909 169.307 185.595 169.848C183.763 172.984 185.459 180.656 188.107 190.024C188.275 190.632 188.443 191.216 188.603 191.76V191.848L189.283 194.192C191.875 203.184 196.723 220.84 197.619 229.496C197.683 230.296 197.723 231.152 197.739 231.952C197.795 241.92 193.371 258.608 195.275 265.504C195.523 266.408 195.779 267.272 196.035 268.128C197.451 272.736 198.715 277.096 200.939 281.424C203.643 286.704 206.867 291.768 209.883 296.88C215.419 306.272 221.147 315.552 227.067 324.72C229.795 328.928 232.987 332.768 236.075 336.72C237.491 338.536 240.579 341.264 241.115 343.592C241.115 343.592 268.499 345.856 283.827 336.12L282.387 314.328L292.667 255.248C295.603 250.792 304.667 242.088 306.475 239.336C307.411 237.968 308.323 236.608 309.211 235.28C315.971 228.968 319.355 224.08 320.843 218.392C320.875 218.408 320.771 217.76 320.499 216.696ZM225.699 229.6L225.563 229.344C228.36 230.61 231.323 231.472 234.363 231.904C231.171 231.536 227.563 231.024 225.699 229.6ZM237.251 232.248L238.723 232.352C238.231 232.35 237.739 232.315 237.251 232.248ZM225.411 229L223.571 225.352C221.011 218.008 215.227 200.696 215.203 200.624C214.07 195.635 212.557 190.741 210.675 185.984C212.036 186.464 213.495 186.598 214.92 186.374C216.346 186.151 217.694 185.577 218.843 184.704L232.843 174.072C234.291 174.944 235.771 175.728 237.219 176.416L250.331 186.664L239.931 229.408L225.411 229ZM278.483 130.552C279.571 135.656 281.291 143 283.571 150.112C281.358 143.736 279.651 137.196 278.467 130.552H278.483Z" fill="#142B71"/>
<path d="M219.051 335.944L219.131 336.328C219.131 336.328 219.107 336.184 219.051 335.944Z" fill="#142B71"/>
</g>
<path d="M267.651 132.12C268.451 131.592 280.179 125.208 286.051 144.352C291.923 163.496 298.811 196.072 298.811 196.072L284.859 198.784C284.859 198.784 271.931 191.904 260.347 174.672C260.347 174.672 244.107 170.464 237.035 160.464C230.635 151.376 250.379 118.008 250.379 118.008L267.651 132.12Z" fill="white"/>
<path d="M262.635 155.944C266.091 161.128 272.635 172.032 281.467 175.472" stroke="#142B71" stroke-width="0.8" stroke-linecap="round" stroke-linejoin="round"/>
<path d="M252.859 161.52C254.459 162.168 258.459 164.472 260.347 164.56C260.347 164.56 268.499 180.696 281.947 185.936" stroke="#142B71" stroke-width="0.8" stroke-linecap="round" stroke-linejoin="round"/>
<path d="M245.379 167.464C250.379 171.648 256.339 174.504 260.347 174.664C260.347 174.664 268.499 190.8 281.947 196.04" stroke="#142B71" stroke-width="0.8" stroke-linecap="round" stroke-linejoin="round"/>
<path d="M203.3 50.5365L159.063 84.1386C155.221 87.057 154.472 92.5374 157.391 96.3795L218.832 177.266C221.75 181.108 227.231 181.857 231.073 178.939L275.31 145.337C279.152 142.418 279.9 136.938 276.982 133.096L215.541 52.2089C212.623 48.3669 207.142 47.6181 203.3 50.5365Z" fill="#142B71"/>
<path d="M274.051 143.584L233.459 174.424C232.307 175.301 230.994 175.943 229.594 176.312C228.194 176.681 226.735 176.77 225.3 176.573C223.866 176.377 222.484 175.9 221.235 175.168C219.985 174.437 218.893 173.466 218.019 172.312L159.339 95.0636C158.383 93.8159 157.711 92.3742 157.371 90.8396C156.898 88.7789 157.031 86.6254 157.753 84.6384C158.476 82.6513 159.757 80.9154 161.443 79.6396L172.851 70.9836L202.051 48.7916C203.203 47.9161 204.517 47.2761 205.917 46.9084C207.316 46.5407 208.775 46.4524 210.209 46.6485C211.642 46.8446 213.024 47.3214 214.273 48.0515C215.523 48.7816 216.616 49.7508 217.491 50.9036L241.035 81.8956L258.539 104.936L276.139 128.136C277.017 129.287 277.66 130.6 278.03 131.999C278.4 133.399 278.491 134.858 278.297 136.292C278.103 137.727 277.628 139.11 276.9 140.361C276.171 141.612 275.203 142.707 274.051 143.584Z" fill="#92E3A9"/>
<path opacity="0.1" d="M241.003 81.8956L172.827 70.9756L202.051 48.7916C203.203 47.9161 204.517 47.2761 205.917 46.9084C207.316 46.5407 208.775 46.4524 210.209 46.6485C211.642 46.8446 213.024 47.3214 214.273 48.0515C215.523 48.7816 216.616 49.7508 217.491 50.9036L241.003 81.8956Z" fill="#142B71"/>
<path opacity="0.1" d="M274.051 143.584L233.459 174.424C232.307 175.301 230.994 175.943 229.594 176.312C228.194 176.681 226.735 176.77 225.3 176.574C223.866 176.377 222.484 175.9 221.235 175.169C219.985 174.437 218.892 173.466 218.019 172.312L159.339 95.0638C158.383 93.8161 157.711 92.3744 157.371 90.8398L259.883 106.784L276.139 128.184C277.897 130.505 278.665 133.429 278.273 136.315C277.882 139.201 276.364 141.814 274.051 143.584Z" fill="#142B71"/>
<path d="M207.82 56.627L200.653 62.0709C199.218 63.1612 198.938 65.2089 200.029 66.6443L208.705 78.0667C209.795 79.5022 211.843 79.782 213.278 78.6916L220.445 73.2477C221.881 72.1573 222.161 70.1097 221.07 68.6742L212.394 57.2518C211.303 55.8163 209.256 55.5366 207.82 56.627Z" fill="white" stroke="#142B71" stroke-width="0.8" stroke-linecap="round" stroke-linejoin="round"/>
<path d="M204.387 59.2317L216.755 76.0397" stroke="#142B71" stroke-width="0.8" stroke-linecap="round" stroke-linejoin="round"/>
<path d="M204.387 72.3838L216.755 63.0078" stroke="#142B71" stroke-width="0.8" stroke-linecap="round" stroke-linejoin="round"/>
<path d="M228.347 169.384L226.243 170.944L200.475 137.016L202.563 135.432L228.347 169.384Z" fill="#142B71"/>
<path d="M231.923 166.744L229.811 168.304L204.019 134.336L206.099 132.752L231.923 166.744Z" fill="#142B71"/>
<path d="M235.499 164.104L233.387 165.664L207.547 131.648L209.635 130.064L235.499 164.104Z" fill="#142B71"/>
<path d="M239.067 161.464L236.963 163.016L211.467 129.448L213.547 127.864L239.067 161.464Z" fill="#142B71"/>
<path d="M242.923 158.616L240.811 160.168L215.283 126.552L217.371 124.968L242.923 158.616Z" fill="#142B71"/>
<path d="M242.923 119.064L240.811 120.616L215.283 86.9917L217.371 85.4077L242.923 119.064Z" fill="#142B71"/>
<path d="M187.317 60.0703L184.049 62.5527L256.005 157.283L259.273 154.8L187.317 60.0703Z" fill="#142B71"/>
<path d="M274.051 143.584L233.459 174.424C232.307 175.301 230.994 175.943 229.594 176.312C228.194 176.681 226.735 176.77 225.3 176.573C223.866 176.377 222.484 175.9 221.235 175.168C219.985 174.437 218.893 173.466 218.019 172.312L159.339 95.0636C158.383 93.8159 157.711 92.3742 157.371 90.8396C156.898 88.7789 157.031 86.6254 157.753 84.6384C158.476 82.6513 159.757 80.9154 161.443 79.6396L172.851 70.9836L202.051 48.7916C203.203 47.9161 204.517 47.2761 205.917 46.9084C207.316 46.5407 208.775 46.4524 210.209 46.6485C211.642 46.8446 213.024 47.3214 214.273 48.0515C215.523 48.7816 216.616 49.7508 217.491 50.9036L241.035 81.8956L258.539 104.936L276.139 128.136C277.017 129.287 277.66 130.6 278.03 131.999C278.4 133.399 278.491 134.858 278.297 136.292C278.103 137.727 277.628 139.11 276.9 140.361C276.171 141.612 275.203 142.707 274.051 143.584Z" stroke="#142B71" stroke-width="0.8" stroke-linecap="round" stroke-linejoin="round"/>
<path d="M241.147 343.584C241.147 343.584 288.395 360.384 302.691 323.792C302.691 323.792 280.331 296.592 292.539 274.368C300.219 260.368 321.459 229.464 321.459 229.464C321.459 229.464 330.331 221.04 333.091 212.576C333.091 212.576 331.571 203.144 324.883 196.76C324.883 196.76 324.811 191.96 321.059 189.224C317.307 186.488 310.427 181.224 310.427 181.224C310.427 181.224 299.115 154.088 297.435 149.184C295.755 144.28 292.379 135.008 290.691 124.768C289.003 114.528 287.443 103.504 283.859 103.536C283.859 103.536 280.163 101.936 280.163 108.504C280.163 108.504 272.403 112.504 273.547 120.968C274.691 129.432 275.747 133.808 275.443 138.568C275.139 143.328 276.667 159.856 280.491 165.04C280.491 165.04 281.771 188.24 283.691 194.28C283.755 194.464 283.811 194.632 283.867 194.784C285.883 199.896 265.739 219.584 254.835 224.912C254.835 224.912 253.691 227.04 249.459 226.456C245.227 225.872 238.067 225.6 236.835 222.456C235.603 219.312 227.403 194.784 227.403 194.784C227.403 194.784 220.771 163.344 207.523 163.352C207.523 163.352 205.515 158.552 200.323 161.176C195.131 163.8 198.531 178.104 200.827 185.928C203.123 193.752 208.939 214.32 209.883 223.784C210.827 233.248 205.467 252.208 207.483 259.664C209.499 267.12 211.739 272.152 218.171 284.36C224.603 296.568 238.851 332.968 241.147 343.584Z" fill="white"/>
<path d="M241.147 343.584C241.147 343.584 231.035 305.52 216.171 280.904C201.307 256.288 210.051 247.584 210.051 227.096C210.051 206.608 193.355 171.728 197.859 164.04C202.363 156.352 208.507 162.504 211.075 169.68C213.643 176.856 210.051 180.96 202.851 181.472" stroke="#142B71" stroke-width="0.8" stroke-linecap="round" stroke-linejoin="round"/>
<path d="M207.523 163.384C207.523 163.384 216.155 162.856 221.459 176.656C226.763 190.456 235.259 225.456 244.107 236.104" stroke="#142B71" stroke-width="0.8" stroke-linecap="round" stroke-linejoin="round"/>
<path d="M237.123 223.176C237.171 223.288 249.483 230.152 268.587 224.136" stroke="#142B71" stroke-width="0.8" stroke-linecap="round" stroke-linejoin="round"/>
<path d="M209.163 203.888C210.123 202.713 211.375 201.812 212.793 201.274C214.211 200.736 215.746 200.581 217.243 200.824" stroke="#142B71" stroke-width="0.8" stroke-linecap="round" stroke-linejoin="round"/>
<path d="M210.803 208.232C211.632 207.24 212.724 206.502 213.954 206.101C215.183 205.701 216.501 205.655 217.755 205.968" stroke="#142B71" stroke-width="0.8" stroke-linecap="round" stroke-linejoin="round"/>
<path d="M280.163 108.48C267.603 112.664 276.963 131.632 275.443 138.552C273.923 145.472 277.843 158.72 280.859 165.904C280.859 174.328 283.859 194.768 283.859 194.768C282.003 201.272 266.515 220.44 251.467 226.44" stroke="#142B71" stroke-width="0.8" stroke-linecap="round" stroke-linejoin="round"/>
<path d="M289.379 118.032C289.379 118.032 288.443 103.512 283.859 103.512C279.275 103.512 279.555 113.296 281.459 120.56C283.363 127.824 290.771 126.784 289.379 118.032Z" stroke="#142B71" stroke-width="0.8" stroke-linecap="round" stroke-linejoin="round"/>
<path d="M289.379 118.032C289.379 118.032 293.283 140.856 299.899 155.192" stroke="#142B71" stroke-width="0.8" stroke-linecap="round" stroke-linejoin="round"/>
<path d="M307.699 208.648C310.899 203.464 312.315 198.56 313.499 192.32C313.203 188.408 308.699 175.64 303.467 163.272" stroke="#142B71" stroke-width="0.8" stroke-linecap="round" stroke-linejoin="round"/>
<path d="M310.851 182.432C316.043 186.336 325.075 189.336 324.035 196.072C322.887 202.81 320.529 209.285 317.075 215.184" stroke="#142B71" stroke-width="0.8" stroke-linecap="round" stroke-linejoin="round"/>
<path d="M303.843 325.496C303.843 325.496 285.755 300.384 289.379 283.04C292.043 270.28 309.171 247.968 321.459 229.488C328.227 223.176 331.611 218.288 333.091 212.6C330.923 201.92 327.403 198.808 324.019 196.072" stroke="#142B71" stroke-width="0.8" stroke-linecap="round" stroke-linejoin="round"/>
<path d="M308.667 186.576C306.652 186.009 304.543 185.863 302.469 186.145C300.395 186.427 298.401 187.132 296.611 188.216" stroke="#142B71" stroke-width="0.8" stroke-linecap="round" stroke-linejoin="round"/>
<path d="M307.651 190.872C305.194 190.5 302.682 190.941 300.499 192.128" stroke="#142B71" stroke-width="0.8" stroke-linecap="round" stroke-linejoin="round"/>
</g>
<defs>
<clipPath id="clip0_449_1701">
<rect width="332.888" height="347.016" fill="white" transform="translate(0.610992 0.439697)"/>
</clipPath>
</defs>
</svg>
