<svg width="271" height="281" viewBox="0 0 271 281" fill="none" xmlns="http://www.w3.org/2000/svg">
<g clip-path="url(#clip0_449_1583)">
<path d="M100.559 3.36874C100.559 3.36874 130.46 -2.69206 157.666 3.36874C174.306 7.07434 209.346 15.8615 217.621 35.7783C225.897 55.6951 186.069 72.6872 205.634 92.892C214.076 101.609 254.581 113.103 252.303 169.641C250.025 226.178 190.677 260.642 108.201 259.106C25.7238 257.57 -21.8922 182.569 10.0054 145.634C41.903 108.7 55.6374 108.591 41.1798 78.5112C26.7222 48.4311 46.7926 11.9767 100.559 3.36874Z" fill="#92E3A9"/>
<path opacity="0.7" d="M100.559 3.36874C100.559 3.36874 130.46 -2.69206 157.666 3.36874C174.306 7.07434 209.346 15.8615 217.621 35.7783C225.897 55.6951 186.069 72.6872 205.634 92.892C214.076 101.609 254.581 113.103 252.303 169.641C250.025 226.178 190.677 260.642 108.201 259.106C25.7238 257.57 -21.8922 182.569 10.0054 145.634C41.903 108.7 55.6374 108.591 41.1798 78.5112C26.7222 48.4311 46.7926 11.9767 100.559 3.36874Z" fill="white"/>
<path d="M180.885 82.6134H77.7494L64.879 18.5942H193.762L180.885 82.6134Z" fill="#142B71"/>
<path d="M74.5495 20.6743L55.5607 149.846H203.074L184.085 20.6743" fill="#92E3A9"/>
<mask id="mask0_449_1583" style="mask-type:luminance" maskUnits="userSpaceOnUse" x="55" y="20" width="149" height="130">
<path d="M74.5559 20.6743L55.5607 149.846H203.081L184.085 20.6743" fill="white"/>
</mask>
<g mask="url(#mask0_449_1583)">
<path opacity="0.3" d="M203.081 149.846H55.5607L63.5031 95.8296H195.138L203.081 149.846Z" fill="black" fill-opacity="0.7"/>
</g>
<path d="M74.5495 20.6743L55.5607 149.846H203.074L184.085 20.6743" stroke="#142B71" stroke-width="0.64" stroke-linecap="round" stroke-linejoin="round"/>
<path d="M180.073 20.6743H78.5686L60.9686 149.846H197.673L180.073 20.6743Z" fill="#142B71"/>
<path d="M170.044 30.5176H114.946L114.306 29.1096C114.134 28.7275 113.856 28.4032 113.504 28.1761C113.152 27.9489 112.741 27.8286 112.322 27.8296H99.8295C99.49 27.8296 99.1644 27.9645 98.9244 28.2045C98.6843 28.4445 98.5495 28.7701 98.5495 29.1096V30.5432H88.5975C88.4179 30.5435 88.2406 30.5836 88.0784 30.6606C87.9162 30.7376 87.773 30.8496 87.6592 30.9885C87.5454 31.1274 87.4638 31.2898 87.4202 31.464C87.3766 31.6382 87.3721 31.8199 87.4071 31.996L95.5479 72.476H163.093L171.234 31.996C171.274 31.8181 171.272 31.6336 171.231 31.4561C171.189 31.2787 171.108 31.1129 170.994 30.971C170.88 30.829 170.735 30.7146 170.571 30.6361C170.406 30.5576 170.226 30.5171 170.044 30.5176Z" fill="#BFBFBF" stroke="#142B71" stroke-width="0.64" stroke-linecap="round" stroke-linejoin="round"/>
<path d="M172.124 33.6215L171.42 37.1159L164.188 73.0775C164.084 73.6176 163.795 74.1045 163.371 74.4549C162.947 74.8052 162.415 74.9971 161.865 74.9975H96.7766C96.2267 74.9971 95.6941 74.8052 95.2702 74.4549C94.8462 74.1045 94.5575 73.6176 94.4534 73.0775L87.0806 36.2647L86.5494 33.6215C86.5148 33.447 86.5188 33.2669 86.5613 33.0941C86.6038 32.9213 86.6837 32.7599 86.7954 32.6214C86.9071 32.4828 87.0479 32.3705 87.2078 32.2923C87.3676 32.2141 87.5427 32.1719 87.7206 32.1687H170.921C171.101 32.1672 171.28 32.2059 171.444 32.2821C171.608 32.3582 171.752 32.4699 171.868 32.6091C171.983 32.7482 172.066 32.9113 172.11 33.0864C172.154 33.2615 172.159 33.4444 172.124 33.6215Z" fill="white"/>
<mask id="mask1_449_1583" style="mask-type:luminance" maskUnits="userSpaceOnUse" x="86" y="32" width="87" height="43">
<path d="M172.124 33.6215L171.42 37.1159L164.188 73.0775C164.084 73.6176 163.795 74.1045 163.371 74.4549C162.947 74.8052 162.415 74.9971 161.865 74.9975H96.7766C96.2267 74.9971 95.6941 74.8052 95.2702 74.4549C94.8462 74.1045 94.5575 73.6176 94.4534 73.0775L87.0806 36.2647L86.5494 33.6215C86.5148 33.447 86.5188 33.2669 86.5613 33.0941C86.6038 32.9213 86.6837 32.7599 86.7954 32.6214C86.9071 32.4828 87.0479 32.3705 87.2078 32.2923C87.3676 32.2141 87.5427 32.1719 87.7206 32.1687H170.921C171.101 32.1672 171.28 32.2059 171.444 32.2821C171.608 32.3582 171.752 32.4699 171.868 32.6091C171.983 32.7482 172.066 32.9113 172.11 33.0864C172.154 33.2615 172.159 33.4444 172.124 33.6215Z" fill="white"/>
</mask>
<g mask="url(#mask1_449_1583)">
<path opacity="0.4" d="M171.42 37.1158L164.188 73.0774C164.084 73.6175 163.795 74.1044 163.371 74.4548C162.947 74.8051 162.415 74.997 161.865 74.9974H96.7767C96.2267 74.997 95.6941 74.8051 95.2702 74.4548C94.8463 74.1044 94.5575 73.6175 94.4535 73.0774L87.0807 36.2646L171.42 37.1158Z" fill="#92E3A9"/>
</g>
<path d="M172.124 33.6215L171.42 37.1159L164.188 73.0775C164.084 73.6176 163.795 74.1045 163.371 74.4549C162.947 74.8052 162.415 74.9971 161.865 74.9975H96.7766C96.2267 74.9971 95.6941 74.8052 95.2702 74.4549C94.8462 74.1045 94.5575 73.6176 94.4534 73.0775L87.0806 36.2647L86.5494 33.6215C86.5148 33.447 86.5188 33.2669 86.5613 33.0941C86.6038 32.9213 86.6837 32.7599 86.7954 32.6214C86.9071 32.4828 87.0479 32.3705 87.2078 32.2923C87.3676 32.2141 87.5427 32.1719 87.7206 32.1687H170.921C171.101 32.1672 171.28 32.2059 171.444 32.2821C171.608 32.3582 171.752 32.4699 171.868 32.6091C171.983 32.7482 172.066 32.9113 172.11 33.0864C172.154 33.2615 172.159 33.4444 172.124 33.6215Z" stroke="#142B71" stroke-width="0.64" stroke-linecap="round" stroke-linejoin="round"/>
<path d="M171.023 39.8423H114.601L113.961 38.4407C113.78 38.056 113.493 37.731 113.133 37.5042C112.774 37.2774 112.357 37.1582 111.932 37.1607H99.1318C98.7924 37.1607 98.4668 37.2955 98.2267 37.5356C97.9867 37.7756 97.8518 38.1012 97.8518 38.4407V39.8743H87.6118C87.4305 39.872 87.2509 39.9101 87.0861 39.9858C86.9212 40.0615 86.7753 40.1729 86.6589 40.312C86.5425 40.4511 86.4585 40.6143 86.413 40.7899C86.3675 40.9655 86.3616 41.149 86.3958 41.3271L94.7158 81.6855H163.881L172.201 41.3271C172.24 41.1499 172.239 40.9662 172.198 40.7894C172.157 40.6126 172.077 40.4471 171.965 40.305C171.852 40.1628 171.709 40.0475 171.546 39.9675C171.383 39.8875 171.204 39.8447 171.023 39.8423Z" fill="#BFBFBF" stroke="#142B71" stroke-width="0.64" stroke-linecap="round" stroke-linejoin="round"/>
<path d="M173.148 43.0552L172.444 46.4728L165.026 82.396C164.912 82.9418 164.613 83.4314 164.179 83.7814C163.745 84.1315 163.203 84.3204 162.645 84.316H95.9958C95.4382 84.3204 94.8963 84.1315 94.4623 83.7814C94.0282 83.4314 93.7288 82.9418 93.615 82.396L86.1718 46.3512L85.4934 43.0552C85.4592 42.8771 85.465 42.6936 85.5105 42.518C85.556 42.3424 85.64 42.1792 85.7565 42.0401C85.8729 41.901 86.0188 41.7896 86.1836 41.7139C86.3484 41.6382 86.528 41.6001 86.7094 41.6024H171.932C172.113 41.6001 172.293 41.6382 172.458 41.7139C172.622 41.7896 172.768 41.901 172.885 42.0401C173.001 42.1792 173.085 42.3424 173.131 42.518C173.176 42.6936 173.182 42.8771 173.148 43.0552Z" fill="white"/>
<mask id="mask2_449_1583" style="mask-type:luminance" maskUnits="userSpaceOnUse" x="85" y="41" width="89" height="44">
<path d="M173.148 43.0552L172.444 46.4728L165.026 82.396C164.912 82.9418 164.613 83.4314 164.179 83.7814C163.745 84.1315 163.203 84.3204 162.645 84.316H95.9958C95.4382 84.3204 94.8963 84.1315 94.4623 83.7814C94.0282 83.4314 93.7288 82.9418 93.615 82.396L86.1718 46.3512L85.4934 43.0552C85.4592 42.8771 85.465 42.6936 85.5105 42.518C85.556 42.3424 85.64 42.1792 85.7565 42.0401C85.8729 41.901 86.0188 41.7896 86.1836 41.7139C86.3484 41.6382 86.528 41.6001 86.7094 41.6024H171.932C172.113 41.6001 172.293 41.6382 172.458 41.7139C172.622 41.7896 172.768 41.901 172.885 42.0401C173.001 42.1792 173.085 42.3424 173.131 42.518C173.176 42.6936 173.182 42.8771 173.148 43.0552Z" fill="white"/>
</mask>
<g mask="url(#mask2_449_1583)">
<path opacity="0.4" d="M172.444 46.4727L165.026 82.3959C164.912 82.9417 164.613 83.4313 164.179 83.7813C163.745 84.1313 163.203 84.3202 162.645 84.3159H95.9957C95.4382 84.3202 94.8963 84.1313 94.4623 83.7813C94.0282 83.4313 93.7288 82.9417 93.615 82.3959L86.1718 46.3511L172.444 46.4727Z" fill="#92E3A9"/>
</g>
<path d="M173.148 43.0552L172.444 46.4728L165.026 82.396C164.912 82.9418 164.613 83.4314 164.179 83.7814C163.745 84.1315 163.203 84.3203 162.645 84.316H95.9958C95.4382 84.3203 94.8963 84.1315 94.4623 83.7814C94.0282 83.4314 93.7288 82.9418 93.615 82.396L86.1718 46.3512L85.4934 43.0552C85.4592 42.8771 85.465 42.6936 85.5105 42.518C85.556 42.3424 85.64 42.1792 85.7565 42.0401C85.8729 41.901 86.0188 41.7896 86.1836 41.7139C86.3484 41.6382 86.528 41.6001 86.7094 41.6024H171.932C172.113 41.6001 172.293 41.6382 172.458 41.7139C172.622 41.7896 172.768 41.901 172.885 42.0401C173.001 42.1792 173.085 42.3424 173.131 42.518C173.176 42.6936 173.182 42.8771 173.148 43.0552Z" stroke="#142B71" stroke-width="0.64" stroke-linecap="round" stroke-linejoin="round"/>
<path d="M171.996 49.167H114.261L113.621 47.7654C113.433 47.3772 113.138 47.0506 112.771 46.8239C112.404 46.5972 111.979 46.4798 111.548 46.4854H98.4151C98.2438 46.4803 98.0732 46.5096 97.9134 46.5716C97.7537 46.6336 97.608 46.7271 97.485 46.8465C97.3621 46.9659 97.2643 47.1087 97.1976 47.2666C97.1309 47.4244 97.0966 47.5941 97.0967 47.7654V49.1926H86.6455C86.4624 49.1869 86.2804 49.2221 86.1128 49.2957C85.9451 49.3693 85.796 49.4794 85.6764 49.6181C85.5567 49.7567 85.4696 49.9204 85.4214 50.097C85.3731 50.2736 85.3649 50.4588 85.3975 50.639L93.9287 90.8758H164.713L173.244 50.639C173.281 50.457 173.276 50.269 173.23 50.0891C173.183 49.9092 173.097 49.7421 172.977 49.6004C172.857 49.4587 172.706 49.3461 172.536 49.2711C172.366 49.196 172.181 49.1604 171.996 49.167Z" fill="#BFBFBF" stroke="#142B71" stroke-width="0.64" stroke-linecap="round" stroke-linejoin="round"/>
<path d="M172.93 51.0423H85.7111C85.5289 51.0366 85.3477 51.0716 85.1808 51.1449C85.0139 51.2182 84.8655 51.3278 84.7464 51.4659C84.6274 51.6039 84.5408 51.7669 84.4928 51.9427C84.4449 52.1186 84.4369 52.303 84.4695 52.4823L92.7895 91.708C92.9117 92.2591 93.2205 92.7511 93.6636 93.101C94.1067 93.4508 94.657 93.6369 95.2215 93.628H163.426C163.991 93.6369 164.541 93.4508 164.984 93.101C165.427 92.7511 165.736 92.2591 165.858 91.708L174.178 52.4823C174.211 52.3024 174.203 52.1175 174.155 51.9411C174.106 51.7648 174.019 51.6015 173.899 51.4633C173.78 51.3251 173.63 51.2156 173.463 51.1427C173.295 51.0699 173.113 51.0356 172.93 51.0423Z" fill="white" stroke="#142B71" stroke-width="0.64" stroke-linecap="round" stroke-linejoin="round"/>
<path d="M172.975 56.5719H113.916L113.244 55.1767C113.046 54.7864 112.743 54.4594 112.368 54.2331C111.994 54.0068 111.563 53.8902 111.125 53.8967H97.6855C97.5115 53.8871 97.3375 53.9132 97.174 53.9732C97.0105 54.0332 96.8609 54.126 96.7345 54.2458C96.6081 54.3656 96.5075 54.51 96.4388 54.6701C96.3701 54.8301 96.3348 55.0025 96.3351 55.1767V56.6039H85.6663C85.4816 56.5946 85.2972 56.6269 85.1266 56.6984C84.9561 56.7699 84.8038 56.8787 84.6809 57.0169C84.5581 57.1551 84.4678 57.3192 84.4168 57.4969C84.3658 57.6747 84.3554 57.8616 84.3863 58.0439L93.1095 98.1655H165.525L174.249 58.0439C174.285 57.8598 174.279 57.6699 174.231 57.4886C174.182 57.3072 174.094 57.1393 173.971 56.9974C173.848 56.8555 173.695 56.7434 173.522 56.6697C173.35 56.596 173.162 56.5626 172.975 56.5719Z" fill="#BFBFBF" stroke="#142B71" stroke-width="0.64" stroke-linecap="round" stroke-linejoin="round"/>
<path d="M173.929 58.556H84.7126C84.528 58.5467 84.3435 58.579 84.173 58.6505C84.0025 58.722 83.8501 58.8308 83.7273 58.969C83.6044 59.1072 83.5142 59.2713 83.4632 59.449C83.4122 59.6268 83.4017 59.8137 83.4326 59.996L91.9382 99.1064C92.0776 99.6563 92.4002 100.142 92.8527 100.484C93.3053 100.826 93.8608 101.004 94.4278 100.988H164.188C164.755 101.004 165.31 100.826 165.763 100.484C166.215 100.142 166.538 99.6563 166.677 99.1064L175.183 59.996C175.213 59.8159 175.203 59.6313 175.154 59.4555C175.104 59.2797 175.016 59.1171 174.896 58.9793C174.776 58.8416 174.627 58.7322 174.46 58.659C174.293 58.5858 174.111 58.5506 173.929 58.556Z" fill="white" stroke="#142B71" stroke-width="0.64" stroke-linecap="round" stroke-linejoin="round"/>
<path d="M173.948 63.9767H113.57L112.885 62.5815C112.678 62.188 112.365 61.86 111.982 61.6339C111.599 61.4079 111.161 61.2928 110.716 61.3015H97.0006C96.6536 61.284 96.3139 61.405 96.0559 61.6377C95.7979 61.8705 95.6428 62.1961 95.6246 62.5431V63.9639H84.6934C84.5116 63.9625 84.3316 64 84.1653 64.0737C83.9991 64.1474 83.8505 64.2557 83.7294 64.3913C83.6083 64.527 83.5174 64.6868 83.463 64.8603C83.4085 65.0338 83.3916 65.2169 83.4134 65.3975L92.335 105.397H166.332L175.253 65.3975C175.274 65.2157 175.255 65.0318 175.198 64.8581C175.141 64.6843 175.047 64.5248 174.924 64.3901C174.8 64.2555 174.649 64.149 174.481 64.0776C174.312 64.0063 174.131 63.9719 173.948 63.9767Z" fill="#BFBFBF" stroke="#142B71" stroke-width="0.64" stroke-linecap="round" stroke-linejoin="round"/>
<path d="M174.921 66.0758H83.7207C83.5369 66.0679 83.3537 66.1009 83.1843 66.1724C83.0149 66.2439 82.8635 66.3522 82.741 66.4894C82.6185 66.6265 82.528 66.7892 82.4761 66.9656C82.4241 67.142 82.412 67.3278 82.4407 67.5095L84.5783 77.1095L91.1319 106.505C91.2843 107.061 91.62 107.549 92.0846 107.891C92.5493 108.232 93.1156 108.407 93.6919 108.386H164.988C165.564 108.407 166.13 108.232 166.595 107.891C167.06 107.549 167.395 107.061 167.548 106.505L170.748 92.0854L176.226 67.5158C176.257 67.3315 176.245 67.1427 176.192 66.9635C176.139 66.7843 176.046 66.6193 175.921 66.4809C175.795 66.3425 175.64 66.2341 175.467 66.164C175.294 66.0939 175.107 66.0638 174.921 66.0758Z" fill="white"/>
<mask id="mask3_449_1583" style="mask-type:luminance" maskUnits="userSpaceOnUse" x="82" y="66" width="95" height="43">
<path d="M174.921 66.0758H83.7207C83.5369 66.0679 83.3537 66.1009 83.1843 66.1724C83.0149 66.2439 82.8635 66.3522 82.741 66.4894C82.6185 66.6265 82.528 66.7892 82.4761 66.9656C82.4241 67.142 82.412 67.3278 82.4407 67.5095L84.5783 77.1095L91.1319 106.505C91.2843 107.061 91.62 107.549 92.0846 107.891C92.5493 108.232 93.1156 108.407 93.6919 108.386H164.988C165.564 108.407 166.13 108.232 166.595 107.891C167.06 107.549 167.395 107.061 167.548 106.505L170.748 92.0854L176.226 67.5158C176.257 67.3315 176.245 67.1427 176.192 66.9635C176.139 66.7843 176.046 66.6193 175.921 66.4809C175.795 66.3425 175.64 66.2341 175.467 66.164C175.294 66.0939 175.107 66.0638 174.921 66.0758Z" fill="white"/>
</mask>
<g mask="url(#mask3_449_1583)">
<path opacity="0.4" d="M84.5526 77.103L91.1062 106.498C91.2586 107.054 91.5944 107.543 92.059 107.884C92.5236 108.226 93.0899 108.4 93.6662 108.38H164.988C165.564 108.4 166.13 108.226 166.595 107.884C167.06 107.543 167.395 107.054 167.548 106.498L170.748 92.079L84.5526 77.103Z" fill="#92E3A9"/>
</g>
<path d="M174.921 66.0758H83.7207C83.5369 66.0679 83.3537 66.1009 83.1843 66.1724C83.0149 66.2439 82.8635 66.3522 82.741 66.4894C82.6185 66.6265 82.528 66.7892 82.4761 66.9656C82.4241 67.142 82.412 67.3278 82.4407 67.5095L84.5783 77.1095L91.1319 106.505C91.2843 107.061 91.62 107.549 92.0846 107.891C92.5493 108.232 93.1156 108.407 93.6919 108.386H164.988C165.564 108.407 166.13 108.232 166.595 107.891C167.06 107.549 167.395 107.061 167.548 106.505L170.748 92.0854L176.226 67.5158C176.257 67.3315 176.245 67.1427 176.192 66.9635C176.139 66.7843 176.046 66.6193 175.921 66.4809C175.795 66.3425 175.64 66.2341 175.467 66.164C175.294 66.0939 175.107 66.0638 174.921 66.0758Z" stroke="#142B71" stroke-width="0.64" stroke-linecap="round" stroke-linejoin="round"/>
<path d="M111.253 109.769L110.447 108.425C110.183 108.037 109.82 107.726 109.396 107.523C108.972 107.321 108.502 107.234 108.034 107.273L93.135 107.958C92.776 107.943 92.4255 108.069 92.1569 108.307C91.8884 108.546 91.7229 108.879 91.695 109.238L91.759 110.646L79.8806 111.19C78.9718 111.228 78.319 111.945 78.5366 112.668L90.0566 151.708L170.466 148.009L178.345 108.092C178.485 107.35 177.775 106.697 176.86 106.742L111.253 109.769Z" fill="#BFBFBF" stroke="#142B71" stroke-width="0.64" stroke-linecap="round" stroke-linejoin="round"/>
<path d="M179.497 110.588L178.601 115.183L171.836 149.506C171.669 150.086 171.315 150.594 170.831 150.952C170.346 151.311 169.757 151.5 169.154 151.49L91.6694 155.049C91.0698 155.114 90.4655 154.98 89.9495 154.668C89.4336 154.356 89.0349 153.882 88.815 153.321L78.1206 117.033L77.6022 115.273C77.391 114.549 78.0438 113.833 78.9526 113.794L178.031 109.237C178.933 109.199 179.644 109.852 179.497 110.588Z" fill="white"/>
<mask id="mask4_449_1583" style="mask-type:luminance" maskUnits="userSpaceOnUse" x="77" y="109" width="103" height="47">
<path d="M179.497 110.588L178.601 115.183L171.836 149.506C171.669 150.086 171.315 150.594 170.831 150.952C170.346 151.311 169.757 151.5 169.154 151.49L91.6694 155.049C91.0698 155.114 90.4655 154.98 89.9495 154.668C89.4336 154.356 89.0349 153.882 88.815 153.321L78.1206 117.033L77.6022 115.273C77.391 114.549 78.0438 113.833 78.9526 113.794L178.031 109.237C178.933 109.199 179.644 109.852 179.497 110.588Z" fill="white"/>
</mask>
<g mask="url(#mask4_449_1583)">
<path opacity="0.4" d="M178.601 115.183L171.836 149.506C171.669 150.086 171.315 150.594 170.831 150.952C170.346 151.311 169.757 151.5 169.154 151.49L91.6694 155.049C91.0699 155.114 90.4655 154.98 89.9496 154.668C89.4337 154.356 89.035 153.882 88.815 153.321L78.1206 117.033L178.601 115.183Z" fill="#92E3A9"/>
</g>
<path d="M179.497 110.588L178.601 115.183L171.836 149.506C171.669 150.086 171.315 150.594 170.831 150.952C170.346 151.311 169.757 151.5 169.154 151.49L91.6694 155.049C91.0698 155.114 90.4655 154.98 89.9495 154.668C89.4336 154.356 89.0349 153.882 88.815 153.321L78.1206 117.033L77.6022 115.273C77.391 114.549 78.0438 113.833 78.9526 113.794L178.031 109.237C178.933 109.199 179.644 109.852 179.497 110.588Z" stroke="#142B71" stroke-width="0.64" stroke-linecap="round" stroke-linejoin="round"/>
<path d="M112.962 118.677L112.277 117.269C112.042 116.855 111.701 116.509 111.29 116.266C110.879 116.024 110.412 115.893 109.935 115.887L94.7606 115.093C94.3971 115.038 94.0262 115.126 93.7272 115.34C93.4282 115.554 93.2249 115.877 93.1606 116.239L93.0902 117.641L80.9814 117.001C80.0534 116.949 79.3238 117.596 79.4646 118.332L87.2918 158.197L169.295 162.485L181.231 123.657C181.449 122.933 180.789 122.217 179.861 122.172L112.962 118.677Z" fill="#BFBFBF" stroke="#142B71" stroke-width="0.64" stroke-linecap="round" stroke-linejoin="round"/>
<path d="M182.159 126.364L180.239 132.687L170.549 164.213C170.316 164.777 169.904 165.249 169.377 165.557C168.85 165.864 168.237 165.99 167.631 165.916L88.6102 161.788C88.0004 161.797 87.4043 161.607 86.9122 161.246C86.4202 160.886 86.0592 160.375 85.8838 159.791L79.1958 125.698L78.2614 120.93C78.1142 120.194 78.8502 119.548 79.7782 119.599L180.789 124.879C181.717 124.93 182.383 125.647 182.159 126.364Z" fill="white"/>
<mask id="mask5_449_1583" style="mask-type:luminance" maskUnits="userSpaceOnUse" x="78" y="119" width="105" height="47">
<path d="M182.159 126.364L180.239 132.687L170.549 164.213C170.316 164.777 169.904 165.249 169.377 165.557C168.85 165.864 168.237 165.99 167.631 165.916L88.6102 161.788C88.0004 161.797 87.4043 161.607 86.9122 161.246C86.4202 160.886 86.0592 160.375 85.8838 159.791L79.1958 125.698L78.2614 120.93C78.1142 120.194 78.8502 119.548 79.7782 119.599L180.789 124.879C181.717 124.93 182.383 125.647 182.159 126.364Z" fill="white"/>
</mask>
<g mask="url(#mask5_449_1583)">
<path opacity="0.4" d="M180.213 132.687L170.524 164.213C170.29 164.777 169.879 165.249 169.352 165.557C168.824 165.864 168.211 165.99 167.605 165.916L88.5846 161.788C87.9748 161.797 87.3787 161.607 86.8866 161.246C86.3946 160.886 86.0335 160.375 85.8582 159.791L79.1702 125.698L180.213 132.687Z" fill="#92E3A9"/>
</g>
<path d="M182.159 126.364L180.239 132.687L170.549 164.213C170.316 164.777 169.904 165.249 169.377 165.557C168.85 165.864 168.237 165.99 167.631 165.916L88.6102 161.788C88.0004 161.797 87.4043 161.607 86.9122 161.246C86.4202 160.886 86.0592 160.375 85.8838 159.791L79.1958 125.698L78.2614 120.93C78.1142 120.194 78.8502 119.548 79.7782 119.599L180.789 124.879C181.717 124.93 182.383 125.647 182.159 126.364Z" stroke="#142B71" stroke-width="0.64" stroke-linecap="round" stroke-linejoin="round"/>
<path d="M111.503 128.885L110.761 127.516C110.498 127.108 110.134 126.776 109.704 126.552C109.275 126.327 108.794 126.218 108.309 126.236H92.7638C92.3955 126.196 92.0262 126.301 91.7345 126.53C91.4428 126.758 91.2518 127.091 91.2022 127.458V128.853H78.8374C77.8902 128.853 77.1798 129.532 77.3654 130.261L87.4518 169.538H171.189L181.276 130.261C181.461 129.532 180.751 128.853 179.804 128.853L111.503 128.885Z" fill="#BFBFBF" stroke="#142B71" stroke-width="0.64" stroke-linecap="round" stroke-linejoin="round"/>
<path d="M169.641 173.193H89.0006C87.6054 173.193 86.3958 172.418 86.1206 171.35L76.2646 133.058C76.0726 132.329 76.783 131.65 77.7366 131.65H180.905C181.858 131.65 182.569 132.329 182.377 133.058L172.546 171.35C172.271 172.418 171.061 173.193 169.641 173.193Z" fill="white" stroke="#142B71" stroke-width="0.64" stroke-linecap="round" stroke-linejoin="round"/>
<path d="M111.157 138.21L110.37 136.847C110.094 136.443 109.719 136.117 109.281 135.898C108.843 135.68 108.357 135.577 107.868 135.599H92.0598C91.6873 135.555 91.3123 135.658 91.0147 135.887C90.7171 136.115 90.5203 136.451 90.4662 136.822V138.21H77.8646C76.8918 138.21 76.1686 138.889 76.3606 139.618L86.6454 178.774H171.996L182.281 139.599C182.473 138.87 181.749 138.191 180.777 138.191L111.157 138.21Z" fill="#BFBFBF" stroke="#142B71" stroke-width="0.64" stroke-linecap="round" stroke-linejoin="round"/>
<path d="M170.447 182.479H88.1943C86.7735 182.479 85.5447 181.705 85.2631 180.636L75.2343 142.466C75.0487 141.737 75.7719 141.058 76.7383 141.058H181.903C182.869 141.058 183.593 141.737 183.407 142.466L173.378 180.636C173.097 181.73 171.868 182.479 170.447 182.479Z" fill="white" stroke="#142B71" stroke-width="0.64" stroke-linecap="round" stroke-linejoin="round"/>
<path d="M187.157 226.614H71.4838L46.1654 154.812H212.476L187.157 226.614Z" fill="#92E3A9"/>
<mask id="mask6_449_1583" style="mask-type:luminance" maskUnits="userSpaceOnUse" x="46" y="154" width="167" height="73">
<path d="M187.157 226.62H71.4838L46.1654 154.818H212.476L187.157 226.62Z" fill="white"/>
</mask>
<g mask="url(#mask6_449_1583)">
<path opacity="0.3" d="M187.157 226.614H71.4838L46.1654 154.812H212.476L187.157 226.614Z" fill="black" fill-opacity="0.7"/>
</g>
<path d="M187.157 226.614H71.4838L46.1654 154.812H212.476L187.157 226.614Z" stroke="#142B71" stroke-width="0.64" stroke-linecap="round" stroke-linejoin="round"/>
<path d="M210.274 145.365H48.367L46.1654 154.812H212.476L210.274 145.365Z" fill="#92E3A9" stroke="#142B71" stroke-width="0.64" stroke-linecap="round" stroke-linejoin="round"/>
<path d="M89.1735 187.708L87.5479 203.036H171.087L169.468 187.708H165.781L166.831 198.652H91.8038L92.8599 187.708H89.1735Z" fill="#BFBFBF" stroke="#142B71" stroke-width="0.64" stroke-linecap="round" stroke-linejoin="round"/>
<path d="M170.46 206.562H88.1815L87.5479 203.036H171.087L170.46 206.562Z" fill="#757575" stroke="#142B71" stroke-width="0.64" stroke-linecap="round" stroke-linejoin="round"/>
<path d="M165.781 187.708L165.263 191.772L165.781 198.652H166.831L165.781 187.708Z" fill="#757575" stroke="#142B71" stroke-width="0.64" stroke-linecap="round" stroke-linejoin="round"/>
<path d="M92.8598 187.708L93.3718 191.772L92.8598 198.652H91.8038L92.8598 187.708Z" fill="#757575" stroke="#142B71" stroke-width="0.64" stroke-linecap="round" stroke-linejoin="round"/>
<path d="M156.233 180.021H102.402L99.8358 167.01H158.805L156.233 180.021Z" fill="white" stroke="#142B71" stroke-width="0.64" stroke-linecap="round" stroke-linejoin="round"/>
<path d="M132.924 54.1783L132.399 52.6743C132.229 52.2458 131.944 51.8724 131.576 51.5948C131.208 51.3171 130.771 51.1459 130.313 51.0999L116.079 49.2631C115.725 49.1954 115.359 49.2705 115.06 49.4719C114.762 49.6734 114.555 49.9849 114.485 50.3383L114.3 51.7783L102.959 50.3191C102.77 50.2795 102.575 50.2831 102.388 50.3294C102.201 50.3758 102.027 50.4638 101.879 50.5868C101.731 50.7099 101.612 50.8648 101.532 51.0401C101.452 51.2153 101.412 51.4064 101.417 51.5991L105.455 93.2887L182.255 103.189L196.732 63.8871C196.784 63.7022 196.794 63.508 196.761 63.3188C196.727 63.1296 196.652 62.9503 196.54 62.7942C196.428 62.638 196.283 62.5091 196.114 62.4169C195.946 62.3247 195.759 62.2715 195.567 62.2615L132.924 54.1783Z" fill="white"/>
<mask id="mask7_449_1583" style="mask-type:luminance" maskUnits="userSpaceOnUse" x="101" y="49" width="96" height="55">
<path d="M132.924 54.1783L132.399 52.6743C132.229 52.2458 131.944 51.8724 131.576 51.5948C131.208 51.3171 130.771 51.1459 130.313 51.0999L116.079 49.2631C115.725 49.1954 115.359 49.2705 115.06 49.4719C114.762 49.6734 114.555 49.9849 114.485 50.3383L114.3 51.7783L102.959 50.3191C102.77 50.2795 102.575 50.2831 102.388 50.3294C102.201 50.3758 102.027 50.4638 101.879 50.5868C101.731 50.7099 101.612 50.8648 101.532 51.0401C101.452 51.2153 101.412 51.4064 101.417 51.5991L105.455 93.2887L182.255 103.189L196.732 63.8871C196.784 63.7022 196.794 63.508 196.761 63.3188C196.727 63.1296 196.652 62.9503 196.54 62.7942C196.428 62.638 196.283 62.5091 196.114 62.4169C195.946 62.3247 195.759 62.2715 195.567 62.2615L132.924 54.1783Z" fill="white"/>
</mask>
<g mask="url(#mask7_449_1583)">
<path opacity="0.4" d="M132.924 54.1783L132.399 52.6743C132.229 52.2458 131.944 51.8724 131.576 51.5948C131.208 51.3171 130.771 51.1459 130.313 51.0999L116.079 49.2631C115.725 49.1954 115.359 49.2705 115.06 49.4719C114.762 49.6734 114.555 49.9849 114.485 50.3383L114.3 51.7783L102.959 50.3191C102.77 50.2795 102.575 50.2831 102.388 50.3294C102.201 50.3758 102.027 50.4638 101.879 50.5868C101.731 50.7099 101.612 50.8648 101.532 51.0401C101.452 51.2153 101.412 51.4064 101.417 51.5991L105.455 93.2887L182.255 103.189L196.732 63.8871C196.784 63.7022 196.794 63.508 196.761 63.3188C196.727 63.1296 196.652 62.9503 196.54 62.7942C196.428 62.638 196.283 62.5091 196.114 62.4169C195.946 62.3247 195.759 62.2715 195.567 62.2615L132.924 54.1783Z" fill="#92E3A9"/>
</g>
<path d="M132.924 54.1783L132.399 52.6743C132.229 52.2458 131.944 51.8724 131.576 51.5948C131.208 51.3171 130.771 51.1459 130.313 51.0999L116.079 49.2631C115.725 49.1954 115.359 49.2705 115.06 49.4719C114.762 49.6734 114.555 49.9849 114.485 50.3383L114.3 51.7783L102.959 50.3191C102.77 50.2795 102.575 50.2831 102.388 50.3294C102.201 50.3758 102.027 50.4638 101.879 50.5868C101.731 50.7099 101.612 50.8648 101.532 51.0401C101.452 51.2153 101.412 51.4064 101.417 51.5991L105.455 93.2887L182.255 103.189L196.732 63.8871C196.784 63.7022 196.794 63.508 196.761 63.3188C196.727 63.1296 196.652 62.9503 196.54 62.7942C196.428 62.638 196.283 62.5091 196.114 62.4169C195.946 62.3247 195.759 62.2715 195.567 62.2615L132.924 54.1783Z" stroke="#142B71" stroke-width="0.64" stroke-linecap="round" stroke-linejoin="round"/>
<path d="M197.468 66.2487L184.361 101.839L183.349 104.578C183.113 105.124 182.7 105.575 182.176 105.858C181.653 106.141 181.049 106.241 180.463 106.14L106.447 96.5911C105.854 96.5391 105.296 96.2893 104.862 95.882C104.428 95.4746 104.143 94.9332 104.053 94.3447L100.117 53.7047C100.113 53.5121 100.153 53.321 100.233 53.1457C100.313 52.9704 100.431 52.8155 100.58 52.6925C100.728 52.5694 100.902 52.4814 101.089 52.4351C101.276 52.3887 101.471 52.3852 101.66 52.4247L164.649 60.5463L196.303 64.6231C196.495 64.6332 196.682 64.6863 196.85 64.7785C197.019 64.8707 197.164 64.9997 197.276 65.1558C197.388 65.3119 197.463 65.4912 197.497 65.6804C197.53 65.8696 197.52 66.0638 197.468 66.2487Z" fill="white"/>
<mask id="mask8_449_1583" style="mask-type:luminance" maskUnits="userSpaceOnUse" x="100" y="52" width="98" height="55">
<path d="M197.468 66.2487L184.361 101.839L183.349 104.578C183.113 105.124 182.7 105.575 182.176 105.858C181.653 106.141 181.049 106.241 180.463 106.14L106.447 96.5911C105.854 96.5391 105.296 96.2893 104.862 95.882C104.428 95.4746 104.143 94.9332 104.053 94.3447L100.117 53.7047C100.113 53.5121 100.153 53.321 100.233 53.1457C100.313 52.9704 100.431 52.8155 100.58 52.6925C100.728 52.5694 100.902 52.4814 101.089 52.4351C101.276 52.3887 101.471 52.3852 101.66 52.4247L164.649 60.5463L196.303 64.6231C196.495 64.6332 196.682 64.6863 196.85 64.7785C197.019 64.8707 197.164 64.9997 197.276 65.1558C197.388 65.3119 197.463 65.4912 197.497 65.6804C197.53 65.8696 197.52 66.0638 197.468 66.2487Z" fill="white"/>
</mask>
<g mask="url(#mask8_449_1583)">
<path opacity="0.3" d="M197.468 66.2487L184.361 101.839C175.074 99.6439 174.722 93.8583 173.167 90.8631C171.452 87.5607 160.578 85.8071 157.538 85.2759C154.498 84.7447 152.649 81.6663 152.649 81.6663C149.909 73.9863 164.207 67.2663 164.207 67.2663C163.925 66.2103 164.341 62.7479 164.642 60.5591L196.297 64.6359C196.487 64.6455 196.674 64.6978 196.842 64.7888C197.01 64.8799 197.156 65.0074 197.268 65.1621C197.38 65.3168 197.456 65.4947 197.491 65.6827C197.526 65.8708 197.518 66.0641 197.468 66.2487Z" fill="black" fill-opacity="0.7"/>
</g>
<path d="M197.468 66.2487L184.361 101.839L183.349 104.578C183.113 105.124 182.7 105.575 182.176 105.858C181.653 106.141 181.049 106.241 180.463 106.14L106.447 96.5911C105.854 96.5391 105.296 96.2893 104.862 95.882C104.428 95.4746 104.143 94.9332 104.053 94.3447L100.117 53.7047C100.113 53.5121 100.153 53.321 100.233 53.1457C100.313 52.9704 100.431 52.8155 100.58 52.6925C100.728 52.5694 100.902 52.4814 101.089 52.4351C101.276 52.3887 101.471 52.3852 101.66 52.4247L164.649 60.5463L196.303 64.6231C196.495 64.6332 196.682 64.6863 196.85 64.7785C197.019 64.8707 197.164 64.9997 197.276 65.1558C197.388 65.3119 197.463 65.4912 197.497 65.6804C197.53 65.8696 197.52 66.0638 197.468 66.2487Z" stroke="#142B71" stroke-width="0.64" stroke-linecap="round" stroke-linejoin="round"/>
<path d="M114.037 64.6553L115.049 89.8009L124.162 90.9849L125.231 65.9161L114.037 64.6553Z" fill="#92E3A9" stroke="#142B71" stroke-width="0.64" stroke-linecap="round" stroke-linejoin="round"/>
<path d="M119.599 87.9576C119.715 87.5127 119.735 87.0485 119.659 86.5952C119.583 86.1419 119.412 85.7098 119.157 85.3271C118.64 84.5671 118.017 83.8841 117.308 83.2984C118.365 83.9048 119.534 84.2922 120.745 84.4375C120.745 83.1255 119.465 82.2167 118.37 81.5255C118.621 81.4282 118.89 81.3881 119.158 81.408C119.426 81.428 119.686 81.5075 119.919 81.6408C119.935 81.4373 119.902 81.233 119.823 81.0448C119.744 80.8567 119.621 80.6902 119.465 80.5592C119.605 80.6808 119.823 80.4888 119.817 80.3096C119.782 80.1297 119.706 79.9608 119.593 79.8167C119.421 79.4291 119.352 79.0035 119.394 78.5816C119.394 77.0776 119.439 75.5672 119.458 74.0632C119.48 74.2007 119.541 74.329 119.634 74.4325C119.727 74.5359 119.848 74.6099 119.983 74.6455C119.983 74.0503 119.913 73.4552 119.855 72.86C119.714 71.356 119.573 69.8456 119.426 68.3416" stroke="#142B71" stroke-width="0.64" stroke-linecap="round" stroke-linejoin="round"/>
<path d="M264.361 146.434C264.361 146.434 212.713 100.226 209.423 97.3144C206.133 94.4024 203.727 94.5304 201.954 92.7576C200.181 90.9848 199.292 89.724 192.079 89.8456C184.866 89.9672 175.241 86.0504 173.09 84.6552C170.94 83.26 167.9 84.2776 165.871 83.4904C163.842 82.7032 158.658 83.3944 155.49 83.4904C152.322 83.5864 152.073 80.3544 153.34 76.6808C154.607 73.0072 164.22 70.7352 165.5 71.4904C166.78 72.2456 171.829 70.1016 171.829 70.1016C171.068 67.4392 171.324 60.9816 171.324 60.9816C171.324 60.9816 166.005 58.7032 163.983 57.948C162.425 57.4781 160.792 57.3065 159.17 57.4424C159.17 57.4424 159.81 54.5368 160.815 53.4552C161.82 52.3736 166.639 51.3624 171.324 48.0728C176.009 44.7832 178.921 44.0216 179.644 44.2712C180.367 44.5208 185.596 46.044 186.991 46.044C188.386 46.044 190.409 44.764 192.431 45.1608C194.453 45.5576 198.127 48.7064 199.772 49.084C201.417 49.4616 201.922 49.8072 204.079 49.8072C205.026 49.8072 208.892 52.6296 208.892 52.6296C210.51 52.9387 212.084 53.4482 213.577 54.1464C215.977 55.2856 218.511 60.732 219.65 62.5048C220.789 64.2776 220.93 68.5784 220.93 68.5784C220.93 68.5784 223.97 70.2232 225.109 72.5016C226.249 74.78 268.201 97.3144 268.201 97.3144C268.201 97.3144 274.812 123.228 264.361 146.434Z" fill="white"/>
<path opacity="0.4" d="M227.586 113.519C218.332 105.238 210.652 98.3768 209.449 97.3144C206.153 94.4024 203.753 94.5304 201.98 92.7576C200.207 90.9848 199.317 89.724 192.105 89.8456C184.892 89.9672 175.266 86.0504 173.116 84.6552C170.965 83.26 167.925 84.2776 165.897 83.4904C163.868 82.7032 158.684 83.3944 155.516 83.4904C152.348 83.5864 152.098 80.3544 153.365 76.6808C154.633 73.0072 164.245 70.7352 165.525 71.4904C166.805 72.2456 171.855 70.1016 171.855 70.1016C171.093 67.4392 171.349 60.9816 171.349 60.9816C171.349 60.9816 166.031 58.7032 164.009 57.948C162.451 57.4781 160.818 57.3065 159.196 57.4424C159.196 57.4424 159.836 54.5368 160.841 53.4552C161.845 52.3736 166.665 51.3624 171.349 48.0728C176.034 44.7832 178.946 44.0216 179.669 44.2712C180.393 44.5208 185.621 46.044 187.017 46.044C188.073 46.044 189.5 45.3144 191.017 45.1288C189.788 45.8136 188.937 47.1192 189.167 47.8168C189.532 48.9176 190.562 51.7208 190.62 51.9C190.345 51.6312 183.708 45.0776 179.42 45.4168C175.714 45.7048 171.951 51.9448 172.585 56.5272C173.218 61.1096 171.682 61.1096 172.514 64.5272C173.346 67.9448 174.101 72.7576 172.834 74.6584C171.567 76.5592 169.039 73.18 169.039 73.18C168.09 73.7009 167.294 74.4625 166.733 75.3882C166.171 76.3139 165.863 77.3711 165.839 78.4536C165.839 82.1272 169.679 82.3768 171.945 82.7608C174.21 83.1448 182.569 87.7208 188.277 87.964L193.986 88.2008C193.986 88.2008 190.69 83.7208 192.066 83.4904C193.442 83.26 197.634 83.6696 200.386 87.9704C203.138 92.2712 205.25 93.2248 210.351 95.3368C213.365 96.5464 221.314 105.129 227.586 113.519Z" fill="#92E3A9"/>
<path opacity="0.4" d="M252.879 88.9751C252.105 88.6103 227.279 76.9111 226.031 75.1639C224.783 73.4167 223.247 72.9879 221.852 71.2279C220.457 69.4679 215.778 68.3287 215.145 65.9223C214.511 63.5159 213.749 56.2135 212.585 55.3111C211.627 54.6085 210.612 53.9877 209.551 53.4551L211.433 58.1463C211.433 58.1463 207.145 52.0727 206.127 51.9063C205.109 51.7399 207.228 56.3223 207.042 56.1815C206.857 56.0407 202.21 51.7015 198.319 48.4119C198.781 48.6905 199.278 48.9058 199.797 49.0519C201.449 49.4295 201.948 49.7751 204.105 49.7751C205.052 49.7751 208.917 52.5975 208.917 52.5975C210.536 52.9066 212.11 53.4161 213.602 54.1143C216.002 55.2535 218.537 60.6999 219.676 62.4727C220.815 64.2455 220.956 68.5463 220.956 68.5463C220.956 68.5463 223.996 70.1911 225.135 72.4695C225.82 73.8519 240.789 82.3063 252.879 88.9751Z" fill="#92E3A9"/>
<path d="M264.361 146.434C264.361 146.434 212.713 100.226 209.423 97.3144C206.133 94.4024 203.727 94.5304 201.954 92.7576C200.181 90.9848 199.292 89.724 192.079 89.8456C184.866 89.9672 175.241 86.0504 173.09 84.6552C170.94 83.26 167.9 84.2776 165.871 83.4904C163.842 82.7032 158.658 83.3944 155.49 83.4904C152.322 83.5864 152.073 80.3544 153.34 76.6808C154.607 73.0072 164.22 70.7352 165.5 71.4904C166.78 72.2456 171.829 70.1016 171.829 70.1016C171.068 67.4392 171.324 60.9816 171.324 60.9816C171.324 60.9816 166.005 58.7032 163.983 57.948C162.425 57.4781 160.792 57.3065 159.17 57.4424C159.17 57.4424 159.81 54.5368 160.815 53.4552C161.82 52.3736 166.639 51.3624 171.324 48.0728C176.009 44.7832 178.921 44.0216 179.644 44.2712C180.367 44.5208 185.596 46.044 186.991 46.044C188.386 46.044 190.409 44.764 192.431 45.1608C194.453 45.5576 198.127 48.7064 199.772 49.084C201.417 49.4616 201.922 49.8072 204.079 49.8072C205.026 49.8072 208.892 52.6296 208.892 52.6296C210.51 52.9387 212.084 53.4482 213.577 54.1464C215.977 55.2856 218.511 60.732 219.65 62.5048C220.789 64.2776 220.93 68.5784 220.93 68.5784C220.93 68.5784 223.97 70.2232 225.109 72.5016C226.249 74.78 268.201 97.3144 268.201 97.3144" stroke="#142B71" stroke-width="0.64" stroke-linecap="round" stroke-linejoin="round"/>
<path d="M171.343 60.9814C171.343 60.9814 171.932 56.0022 171.343 55.311" stroke="#142B71" stroke-width="0.64" stroke-linecap="round" stroke-linejoin="round"/>
<path d="M186.953 48.7896C186.953 48.7896 195.567 56.0791 196.239 56.5271" stroke="#142B71" stroke-width="0.64" stroke-linecap="round" stroke-linejoin="round"/>
<path d="M195.042 46.3384C196.226 47.0744 205.775 55.5416 208.898 57.4808" stroke="#142B71" stroke-width="0.64" stroke-linecap="round" stroke-linejoin="round"/>
<path d="M220.969 68.5591C220.041 68.0151 217.589 66.8311 217.34 65.9031" stroke="#142B71" stroke-width="0.64" stroke-linecap="round" stroke-linejoin="round"/>
<path d="M171.849 70.1016C171.849 70.1016 172.354 72.1688 171.849 73.18" stroke="#142B71" stroke-width="0.64" stroke-linecap="round" stroke-linejoin="round"/>
<path d="M164.252 76.6423C164.252 76.6423 163.074 79.9319 165.858 82.1271" stroke="#142B71" stroke-width="0.64" stroke-linecap="round" stroke-linejoin="round"/>
<path d="M175.733 45.4167C174.846 46.3469 174.257 47.5217 174.044 48.7896" stroke="#142B71" stroke-width="0.64" stroke-linecap="round" stroke-linejoin="round"/>
<path d="M162.601 55.311C162.88 56.0733 163.318 56.7679 163.885 57.3492C164.452 57.9304 165.135 58.3853 165.89 58.6838" stroke="#142B71" stroke-width="0.64" stroke-linecap="round" stroke-linejoin="round"/>
<path d="M200.457 91.3495C198.811 88.9634 197.002 86.6945 195.042 84.5591" stroke="#142B71" stroke-width="0.64" stroke-linecap="round" stroke-linejoin="round"/>
<path d="M23.3942 260.118C23.3942 260.118 64.7382 232.943 67.2662 229.436C68.5638 227.544 70.0948 225.824 71.823 224.316C71.823 224.316 73.007 214.185 76.047 208.956C79.087 203.727 80.2646 199.836 81.615 197.135C82.9654 194.434 89.3782 192.412 91.215 191.375C93.0518 190.338 96.2838 188.335 98.1398 188.335C99.557 188.448 100.936 188.851 102.191 189.519C102.191 189.519 108.437 186.319 111.305 188.335C111.305 188.335 118.396 188.674 120.079 188.502C121.762 188.329 124.303 189.519 124.303 189.519C124.303 189.519 128.521 186.486 131.388 187.663C134.255 188.841 135.625 189.346 135.701 191.036C135.778 192.726 134.991 198.46 134.991 198.46H133.583C133.583 198.46 128.86 204.61 128.354 205.839C127.849 207.068 125.154 213.82 125.154 213.82C125.154 213.82 128.693 211.119 130.914 209.097C133.135 207.074 136.994 203.19 141.045 202.178C145.097 201.167 147.964 203.426 147.964 205.839C147.964 205.839 143.241 209.602 142.204 210.786C141.167 211.97 139.362 215.004 137.327 217.186C135.292 219.369 130.601 228.559 126.517 232.943C122.434 237.327 104.757 246.78 100.687 248.13C100.687 248.13 76.047 265.346 65.2438 279.862C65.2438 279.862 35.8806 280.034 23.3942 260.118Z" fill="white"/>
<path opacity="0.4" d="M103.561 244.418C103.913 244.777 105.353 244.994 107.401 245.058C105.233 246.223 102.997 247.257 100.706 248.156C100.706 248.156 84.591 259.414 72.7126 271.401C76.8022 264.892 84.655 256.77 87.5734 255.081C91.6374 252.713 99.4455 245.071 99.4455 245.071C99.4455 245.071 102.389 243.234 103.561 244.418Z" fill="#92E3A9"/>
<path opacity="0.4" d="M130.901 209.142C132.63 207.442 134.482 205.874 136.444 204.45C134.361 206.736 132.666 209.348 131.426 212.182C130.645 216.425 123.324 225.174 123.324 225.174C125.685 217.583 123.657 216.06 124.322 213.865C124.988 211.67 125.417 206.287 125.417 206.287C125.417 206.287 126.697 204.079 128.047 203.574C129.397 203.068 132.943 194.121 133.602 192.911C134.261 191.702 129.231 189.711 127.881 189.564C126.53 189.417 126.025 191.753 123.324 192.911C120.623 194.07 117.231 196.194 115.983 197.436C114.735 198.678 112.565 204.169 112.425 204.508C112.521 204.124 114.05 197.961 114.447 196.732C114.78 195.708 118.025 193.82 119.228 193.148C117.231 194.076 116.111 192.316 114.447 190.716C112.661 189.001 109.999 188.457 107.087 189.346C104.175 190.236 102.223 192.431 102.21 192.265C102.197 192.098 97.8583 191.337 96.4503 191.753C95.0423 192.169 91.7911 193.641 91.7911 193.641C91.7911 193.641 88.8343 191.938 83.9767 196.732C81.9478 198.735 75.1959 214.012 76.2071 212.182C77.2183 210.351 81.6279 204.886 81.9031 204.546C81.6087 205.263 72.6551 225.359 70.8247 226.639C68.9943 227.919 68.4631 232.45 61.8647 236.169C55.6055 239.695 31.4646 254.87 29.071 256.374C40.5206 248.764 65.3207 232.13 67.2407 229.436C68.5383 227.544 70.0693 225.824 71.7974 224.316C71.7974 224.316 72.9815 214.185 76.0215 208.956C79.0615 203.727 80.2391 199.836 81.5895 197.135C82.9399 194.434 89.3527 192.412 91.1895 191.375C93.0263 190.338 96.2583 188.335 98.1143 188.335C99.5315 188.448 100.91 188.851 102.165 189.519C102.165 189.519 108.412 186.319 111.279 188.335C111.279 188.335 118.37 188.674 120.053 188.502C121.737 188.329 124.277 189.519 124.277 189.519C124.277 189.519 128.495 186.486 131.362 187.663C134.229 188.841 135.599 189.346 135.676 191.036C135.753 192.726 134.965 198.46 134.965 198.46H133.557C133.557 198.46 128.834 204.61 128.329 205.839C127.823 207.068 125.129 213.82 125.129 213.82C125.129 213.82 128.681 211.164 130.901 209.142Z" fill="#92E3A9"/>
<path opacity="0.4" d="M147.951 205.884C147.951 205.884 143.228 209.647 142.191 210.831C141.583 211.542 140.681 212.924 139.631 214.39C140.158 212.679 140.52 210.921 140.713 209.142C141.708 207.69 143.121 206.574 144.764 205.942C145.801 205.636 146.892 205.553 147.964 205.698C147.966 205.761 147.961 205.823 147.951 205.884Z" fill="#92E3A9"/>
<path d="M23.3942 260.118C23.3942 260.118 64.7382 232.943 67.2662 229.436C68.5638 227.544 70.0948 225.824 71.823 224.316C71.823 224.316 73.007 214.185 76.047 208.956C79.087 203.727 80.2646 199.836 81.615 197.135C82.9654 194.434 89.3782 192.412 91.215 191.375C93.0518 190.338 96.2838 188.335 98.1398 188.335C99.557 188.448 100.936 188.851 102.191 189.519C102.191 189.519 108.437 186.319 111.305 188.335C111.305 188.335 118.396 188.674 120.079 188.502C121.762 188.329 124.303 189.519 124.303 189.519C124.303 189.519 128.521 186.486 131.388 187.663C134.255 188.841 135.625 189.346 135.701 191.036C135.778 192.726 134.991 198.46 134.991 198.46H133.583C133.583 198.46 128.86 204.61 128.354 205.839C127.849 207.068 125.154 213.82 125.154 213.82C125.154 213.82 128.693 211.119 130.914 209.097C133.135 207.074 136.994 203.19 141.045 202.178C145.097 201.167 147.964 203.426 147.964 205.839C147.964 205.839 143.241 209.602 142.204 210.786C141.167 211.97 139.362 215.004 137.327 217.186C135.292 219.369 130.601 228.559 126.517 232.943C122.434 237.327 104.757 246.78 100.687 248.13C100.687 248.13 76.047 265.346 65.2438 279.862" stroke="#142B71" stroke-width="0.64" stroke-linecap="round" stroke-linejoin="round"/>
<path d="M125.167 213.839C125.167 213.839 126.178 218.908 124.149 223.439" stroke="#142B71" stroke-width="0.64" stroke-linecap="round" stroke-linejoin="round"/>
<path d="M118.581 193.442C120.703 192.477 122.649 191.166 124.341 189.564" stroke="#142B71" stroke-width="0.64" stroke-linecap="round" stroke-linejoin="round"/>
<path d="M133.602 198.479C134.147 197.362 134.518 196.169 134.703 194.94" stroke="#142B71" stroke-width="0.64" stroke-linecap="round" stroke-linejoin="round"/>
<path d="M111.324 188.38C109.271 188.335 107.268 189.015 105.666 190.3" stroke="#142B71" stroke-width="0.64" stroke-linecap="round" stroke-linejoin="round"/>
<path d="M102.21 189.564C102.21 189.564 97.1478 191.926 95.375 191.926C93.6022 191.926 90.7286 194.287 90.7286 194.966" stroke="#142B71" stroke-width="0.64" stroke-linecap="round" stroke-linejoin="round"/>
<path d="M71.823 224.335C73.3182 222.037 74.5383 219.571 75.4582 216.988" stroke="#142B71" stroke-width="0.64" stroke-linecap="round" stroke-linejoin="round"/>
<path d="M119.676 194.966C119.676 194.966 116.476 195.804 115.375 198.505C114.274 201.206 109.212 210.575 109.212 210.575" stroke="#142B71" stroke-width="0.64" stroke-linecap="round" stroke-linejoin="round"/>
<path d="M103.561 193.442C102.882 195.049 95.2854 209.142 95.2854 209.142" stroke="#142B71" stroke-width="0.64" stroke-linecap="round" stroke-linejoin="round"/>
</g>
<defs>
<clipPath id="clip0_449_1583">
<rect width="270.253" height="279.507" fill="white" transform="translate(0.00860596 0.674316)"/>
</clipPath>
</defs>
</svg>
