<svg width="348" height="323" viewBox="0 0 348 323" fill="none" xmlns="http://www.w3.org/2000/svg">
<g clip-path="url(#clip0_449_1785)">
<path d="M164.075 0.87282C257.775 -7.40267 257.964 45.2069 300.198 94.258C342.431 143.309 351.461 165.54 335.517 222.084C319.572 278.628 265.997 322.947 199.605 297.835C133.214 272.723 95.2196 296.835 53.3641 274.513C11.5086 252.192 -4.0654 209.129 26.5989 158.348C57.2632 107.566 48.5052 11.1194 164.075 0.87282Z" fill="#92E3A9"/>
<path opacity="0.7" d="M164.075 0.87282C257.775 -7.40267 257.964 45.2069 300.198 94.258C342.431 143.309 351.461 165.54 335.517 222.084C319.572 278.628 265.997 322.947 199.605 297.835C133.214 272.723 95.2196 296.835 53.3641 274.513C11.5086 252.192 -4.0654 209.129 26.5989 158.348C57.2632 107.566 48.5052 11.1194 164.075 0.87282Z" fill="white"/>
<path d="M226.464 23.3863L79.1825 39.7041L101.967 243.543L249.249 227.225L226.464 23.3863Z" fill="white" stroke="#142B71" stroke-linecap="round" stroke-linejoin="round"/>
<path d="M226.471 23.3872L79.1896 39.7051L82.3421 67.9084L229.624 51.5906L226.471 23.3872Z" fill="#BFBFBF" stroke="#142B71" stroke-linecap="round" stroke-linejoin="round"/>
<path d="M185.55 36.382L121.97 43.4236C121.674 43.4383 121.385 43.5128 121.119 43.6425C120.854 43.7723 120.618 43.9545 120.425 44.1782C120.233 44.4019 120.088 44.6623 120 44.9435C119.912 45.2247 119.883 45.5208 119.914 45.8137C119.944 46.1066 120.035 46.3901 120.18 46.647C120.324 46.9039 120.52 47.1288 120.755 47.3078C120.99 47.4869 121.259 47.6164 121.546 47.6885C121.832 47.7605 122.131 47.7736 122.423 47.7269L186.004 40.6852C186.56 40.6015 187.062 40.3065 187.404 39.8621C187.747 39.4178 187.903 38.8586 187.841 38.302C187.778 37.7453 187.502 37.2344 187.069 36.8764C186.636 36.5185 186.081 36.3412 185.52 36.382H185.55Z" fill="white"/>
<path d="M170.641 46.9748L138.858 50.4956C138.717 50.5097 138.579 50.5517 138.453 50.6193C138.328 50.6869 138.217 50.7788 138.128 50.8894C138.039 51.0001 137.972 51.1274 137.933 51.2639C137.894 51.4004 137.882 51.5433 137.899 51.6843C137.929 51.9694 138.072 52.2309 138.296 52.4114C138.52 52.592 138.806 52.6768 139.093 52.6473L170.883 49.1264C171.161 49.0845 171.412 48.937 171.583 48.7149C171.755 48.4927 171.833 48.2131 171.802 47.9348C171.77 47.6565 171.632 47.401 171.416 47.222C171.199 47.043 170.922 46.9544 170.641 46.9748Z" fill="white"/>
<path opacity="0.3" d="M194.399 71.3649L111.088 80.5883C110.875 80.6123 110.68 80.7197 110.546 80.8869C110.412 81.054 110.35 81.2674 110.374 81.4799C110.398 81.6923 110.506 81.8866 110.674 82.0199C110.842 82.1533 111.056 82.2147 111.27 82.1908L194.557 72.9674C194.771 72.9434 194.966 72.8361 195.1 72.6689C195.234 72.5017 195.296 72.2884 195.272 72.0759C195.247 71.8634 195.14 71.6691 194.972 71.5358C194.804 71.4024 194.59 71.341 194.376 71.3649H194.399Z" fill="#142B71"/>
<path opacity="0.3" d="M195.041 77.1201L99.2548 87.7277C99.0414 87.7517 98.8463 87.859 98.7123 88.0262C98.5784 88.1934 98.5167 88.4067 98.5407 88.6192C98.5648 88.8317 98.6726 89.026 98.8406 89.1593C99.0085 89.2927 99.2227 89.3541 99.4362 89.3302L195.223 78.7225C195.332 78.716 195.438 78.6875 195.536 78.6389C195.634 78.5902 195.72 78.5223 195.791 78.4394C195.862 78.3564 195.915 78.2601 195.947 78.1562C195.979 78.0522 195.99 77.9429 195.978 77.8348C195.966 77.7256 195.932 77.6199 195.878 77.5242C195.824 77.4285 195.751 77.3447 195.663 77.2779C195.576 77.2111 195.475 77.1626 195.368 77.1355C195.262 77.1084 195.15 77.1031 195.041 77.1201Z" fill="#142B71"/>
<path opacity="0.3" d="M170.686 85.6438L99.897 93.483C99.6836 93.5069 99.4885 93.6143 99.3545 93.7815C99.2206 93.9487 99.1589 94.162 99.183 94.3745C99.207 94.587 99.3149 94.7813 99.4828 94.9146C99.6507 95.0479 99.865 95.1094 100.078 95.0854L170.86 87.2463C170.969 87.2398 171.076 87.2113 171.174 87.1627C171.271 87.114 171.358 87.0461 171.429 86.9632C171.499 86.8802 171.552 86.7839 171.584 86.6799C171.617 86.576 171.627 86.4667 171.616 86.3585C171.604 86.2501 171.57 86.1451 171.516 86.05C171.463 85.9548 171.39 85.8714 171.304 85.8047C171.217 85.738 171.117 85.6894 171.011 85.6618C170.905 85.6341 170.795 85.628 170.686 85.6438Z" fill="#142B71"/>
<path opacity="0.3" d="M215.522 68.3005L207.073 69.2366C205.936 69.3625 205.117 70.3818 205.244 71.5133L206.184 79.9249C206.311 81.0564 207.334 81.8716 208.471 81.7457L216.92 80.8096C218.056 80.6837 218.875 79.6643 218.749 78.5329L217.808 70.1212C217.682 68.9898 216.658 68.1746 215.522 68.3005Z" stroke="#142B71" stroke-linecap="round" stroke-linejoin="round"/>
<path d="M208.575 74.7727L211.348 77.3833L215.013 71.8086" stroke="#92E3A9" stroke-width="3" stroke-linecap="round" stroke-linejoin="round"/>
<path opacity="0.3" d="M197.444 98.6289L114.156 107.852C113.943 107.876 113.748 107.984 113.614 108.151C113.48 108.318 113.418 108.531 113.442 108.744C113.466 108.956 113.574 109.151 113.742 109.284C113.91 109.417 114.124 109.479 114.338 109.455L197.625 100.231C197.731 100.219 197.833 100.187 197.926 100.136C198.02 100.085 198.102 100.016 198.168 99.9328C198.234 99.85 198.283 99.755 198.313 99.6533C198.342 99.5515 198.351 99.445 198.34 99.3398C198.328 99.2346 198.295 99.1327 198.244 99.04C198.192 98.9474 198.123 98.8657 198.04 98.7997C197.957 98.7337 197.861 98.6846 197.759 98.6553C197.657 98.626 197.55 98.617 197.444 98.6289Z" fill="#142B71"/>
<path opacity="0.3" d="M198.086 104.384L102.3 114.992C102.194 115.004 102.092 115.036 101.999 115.087C101.906 115.138 101.824 115.207 101.757 115.29C101.691 115.373 101.642 115.468 101.612 115.57C101.583 115.671 101.574 115.778 101.586 115.883C101.598 115.988 101.63 116.09 101.682 116.183C101.733 116.276 101.803 116.357 101.886 116.423C101.969 116.489 102.064 116.538 102.166 116.568C102.269 116.597 102.376 116.606 102.481 116.594L198.268 105.986C198.481 105.962 198.676 105.855 198.81 105.688C198.944 105.521 199.006 105.307 198.982 105.095C198.958 104.882 198.85 104.688 198.682 104.555C198.514 104.421 198.3 104.36 198.086 104.384Z" fill="#142B71"/>
<path opacity="0.3" d="M173.732 112.908L102.942 120.747C102.729 120.771 102.534 120.878 102.4 121.045C102.266 121.213 102.204 121.426 102.228 121.638C102.252 121.851 102.36 122.045 102.528 122.178C102.696 122.312 102.91 122.373 103.124 122.349L173.906 114.51C174.015 114.504 174.121 114.475 174.219 114.427C174.317 114.378 174.403 114.31 174.474 114.227C174.545 114.144 174.598 114.048 174.63 113.944C174.662 113.84 174.673 113.731 174.661 113.622C174.649 113.514 174.615 113.409 174.562 113.314C174.508 113.219 174.436 113.135 174.349 113.069C174.262 113.002 174.163 112.953 174.057 112.926C173.951 112.898 173.84 112.892 173.732 112.908Z" fill="#142B71"/>
<path opacity="0.3" d="M218.569 95.5659L210.121 96.502C208.984 96.6279 208.165 97.6472 208.292 98.7787L209.232 107.19C209.358 108.322 210.382 109.137 211.519 109.011L219.968 108.075C221.104 107.949 221.923 106.93 221.796 105.798L220.856 97.3866C220.73 96.2552 219.706 95.44 218.569 95.5659Z" stroke="#142B71" stroke-linecap="round" stroke-linejoin="round"/>
<path d="M211.62 102.037L214.393 104.64L218.058 99.0652" stroke="#92E3A9" stroke-width="3" stroke-linecap="round" stroke-linejoin="round"/>
<path opacity="0.3" d="M200.489 125.893L117.202 135.116C117.002 135.155 116.824 135.267 116.703 135.43C116.583 135.593 116.528 135.796 116.551 135.997C116.574 136.199 116.672 136.384 116.827 136.516C116.981 136.649 117.179 136.718 117.383 136.711L200.671 127.473C200.776 127.461 200.879 127.428 200.972 127.377C201.065 127.326 201.147 127.257 201.213 127.174C201.28 127.091 201.329 126.996 201.358 126.895C201.388 126.793 201.397 126.686 201.385 126.581C201.373 126.476 201.34 126.374 201.289 126.282C201.237 126.189 201.168 126.107 201.085 126.041C201.002 125.975 200.906 125.926 200.804 125.897C200.702 125.867 200.595 125.858 200.489 125.87V125.893Z" fill="#142B71"/>
<path opacity="0.3" d="M201.139 131.648L105.345 142.256C105.239 142.266 105.137 142.297 105.043 142.348C104.95 142.398 104.868 142.467 104.801 142.55C104.735 142.633 104.686 142.728 104.658 142.83C104.629 142.932 104.621 143.038 104.635 143.143C104.646 143.249 104.678 143.351 104.729 143.444C104.78 143.536 104.849 143.619 104.932 143.685C105.015 143.751 105.11 143.801 105.212 143.83C105.314 143.86 105.421 143.87 105.527 143.858L201.313 133.25C201.422 133.243 201.529 133.214 201.627 133.164C201.725 133.115 201.811 133.046 201.882 132.963C201.952 132.879 202.005 132.782 202.037 132.678C202.069 132.573 202.08 132.464 202.069 132.355C202.057 132.247 202.023 132.142 201.969 132.047C201.915 131.953 201.843 131.87 201.756 131.804C201.669 131.737 201.57 131.69 201.464 131.663C201.358 131.636 201.247 131.631 201.139 131.648Z" fill="#142B71"/>
<path opacity="0.3" d="M176.777 140.172L105.988 148.011C105.774 148.035 105.579 148.142 105.445 148.31C105.311 148.477 105.249 148.69 105.274 148.903C105.298 149.115 105.405 149.309 105.573 149.443C105.741 149.576 105.956 149.637 106.169 149.613L176.951 141.767C177.164 141.744 177.36 141.637 177.494 141.471C177.629 141.304 177.692 141.092 177.669 140.879C177.646 140.667 177.539 140.472 177.372 140.338C177.204 140.204 176.99 140.141 176.777 140.164V140.172Z" fill="#142B71"/>
<path opacity="0.3" d="M221.617 122.824L213.168 123.76C212.031 123.886 211.212 124.905 211.339 126.037L212.279 134.448C212.406 135.58 213.429 136.395 214.566 136.269L223.015 135.333C224.151 135.207 224.97 134.188 224.844 133.056L223.903 124.645C223.777 123.513 222.753 122.698 221.617 122.824Z" stroke="#142B71" stroke-linecap="round" stroke-linejoin="round"/>
<path d="M214.665 129.293L217.439 131.904L221.104 126.329" stroke="#92E3A9" stroke-width="3" stroke-linecap="round" stroke-linejoin="round"/>
<path opacity="0.3" d="M203.535 153.157L120.247 162.38C120.047 162.419 119.869 162.531 119.748 162.694C119.628 162.857 119.574 163.06 119.596 163.261C119.619 163.463 119.718 163.648 119.872 163.78C120.026 163.913 120.225 163.982 120.428 163.975L203.716 154.752C203.827 154.748 203.937 154.721 204.037 154.673C204.138 154.625 204.227 154.557 204.3 154.473C204.373 154.389 204.427 154.291 204.46 154.185C204.493 154.079 204.504 153.967 204.491 153.857C204.479 153.746 204.443 153.64 204.387 153.544C204.332 153.448 204.256 153.364 204.167 153.299C204.077 153.233 203.974 153.186 203.865 153.162C203.757 153.138 203.644 153.136 203.535 153.157Z" fill="#142B71"/>
<path opacity="0.3" d="M204.184 158.912L108.391 169.52C108.285 169.53 108.182 169.561 108.089 169.612C107.995 169.662 107.913 169.731 107.847 169.814C107.78 169.897 107.731 169.992 107.703 170.094C107.674 170.196 107.667 170.302 107.68 170.407C107.692 170.513 107.724 170.615 107.775 170.708C107.826 170.801 107.894 170.883 107.977 170.949C108.06 171.015 108.155 171.065 108.257 171.095C108.359 171.124 108.466 171.134 108.572 171.122L204.358 160.515C204.572 160.49 204.768 160.382 204.903 160.214C205.037 160.047 205.1 159.833 205.076 159.619C205.051 159.408 204.944 159.215 204.777 159.083C204.61 158.95 204.397 158.889 204.184 158.912Z" fill="#142B71"/>
<path opacity="0.3" d="M179.852 167.436L109.063 175.275C108.957 175.285 108.855 175.316 108.761 175.367C108.668 175.417 108.585 175.486 108.519 175.569C108.453 175.652 108.404 175.747 108.375 175.849C108.347 175.951 108.339 176.058 108.353 176.163C108.364 176.268 108.396 176.37 108.447 176.463C108.498 176.556 108.567 176.638 108.65 176.704C108.733 176.77 108.828 176.82 108.93 176.85C109.032 176.879 109.139 176.889 109.244 176.877L180.026 169.038C180.132 169.027 180.234 168.995 180.328 168.944C180.421 168.894 180.503 168.825 180.57 168.743C180.637 168.66 180.687 168.565 180.716 168.464C180.746 168.362 180.756 168.256 180.744 168.15C180.734 168.045 180.702 167.942 180.652 167.849C180.601 167.755 180.532 167.673 180.449 167.606C180.366 167.54 180.271 167.491 180.168 167.461C180.066 167.432 179.958 167.423 179.852 167.436Z" fill="#142B71"/>
<path opacity="0.3" d="M224.664 150.082L216.215 151.018C215.079 151.144 214.26 152.163 214.387 153.295L215.327 161.706C215.453 162.838 216.477 163.653 217.614 163.527L226.063 162.591C227.199 162.465 228.018 161.446 227.891 160.314L226.951 151.902C226.825 150.771 225.801 149.956 224.664 150.082Z" stroke="#142B71" stroke-linecap="round" stroke-linejoin="round"/>
<path d="M217.711 156.557L220.484 159.168L224.149 153.593" stroke="#92E3A9" stroke-width="3" stroke-linecap="round" stroke-linejoin="round"/>
<path opacity="0.3" d="M206.587 180.413L123.3 189.637C123.194 189.648 123.091 189.68 122.998 189.731C122.905 189.781 122.823 189.85 122.756 189.932C122.689 190.015 122.64 190.11 122.61 190.211C122.58 190.313 122.57 190.419 122.582 190.524C122.593 190.63 122.625 190.732 122.676 190.824C122.727 190.917 122.796 190.999 122.879 191.066C122.962 191.132 123.057 191.181 123.159 191.211C123.261 191.241 123.368 191.25 123.473 191.239L206.761 182.016C206.867 182.004 206.969 181.972 207.063 181.922C207.156 181.871 207.238 181.802 207.305 181.72C207.372 181.638 207.422 181.543 207.451 181.441C207.481 181.34 207.491 181.233 207.479 181.128C207.454 180.916 207.347 180.723 207.18 180.589C207.013 180.455 206.801 180.392 206.587 180.413Z" fill="#142B71"/>
<path opacity="0.3" d="M207.23 186.153L111.436 196.761C111.324 196.765 111.215 196.792 111.115 196.84C111.014 196.888 110.925 196.956 110.852 197.04C110.779 197.124 110.724 197.222 110.692 197.328C110.659 197.434 110.648 197.546 110.661 197.656C110.673 197.766 110.709 197.873 110.764 197.969C110.82 198.065 110.896 198.149 110.985 198.214C111.075 198.28 111.178 198.327 111.286 198.351C111.395 198.375 111.508 198.377 111.617 198.356L207.404 187.748C207.515 187.746 207.626 187.72 207.727 187.673C207.828 187.626 207.919 187.558 207.992 187.474C208.066 187.39 208.122 187.292 208.155 187.186C208.189 187.08 208.2 186.968 208.188 186.857C208.176 186.746 208.141 186.639 208.085 186.542C208.029 186.446 207.954 186.362 207.864 186.296C207.774 186.23 207.671 186.183 207.562 186.158C207.453 186.134 207.34 186.132 207.23 186.153Z" fill="#142B71"/>
<path opacity="0.3" d="M182.875 194.7L112.086 202.539C111.872 202.563 111.677 202.67 111.543 202.837C111.409 203.005 111.348 203.218 111.372 203.43C111.396 203.643 111.504 203.837 111.672 203.971C111.839 204.104 112.054 204.165 112.267 204.141L183.057 196.302C183.269 196.276 183.463 196.167 183.596 196C183.729 195.832 183.79 195.619 183.767 195.407C183.756 195.302 183.723 195.2 183.672 195.108C183.621 195.015 183.552 194.934 183.469 194.868C183.386 194.802 183.291 194.753 183.189 194.724C183.087 194.696 182.98 194.687 182.875 194.7Z" fill="#142B71"/>
<path opacity="0.3" d="M227.705 177.355L219.256 178.291C218.119 178.417 217.301 179.436 217.427 180.567L218.367 188.979C218.494 190.111 219.518 190.926 220.654 190.8L229.103 189.864C230.24 189.738 231.058 188.719 230.932 187.587L229.992 179.175C229.865 178.044 228.841 177.229 227.705 177.355Z" stroke="#142B71" stroke-linecap="round" stroke-linejoin="round"/>
<path d="M220.756 183.821L223.529 186.432L227.194 180.857" stroke="#92E3A9" stroke-width="3" stroke-linecap="round" stroke-linejoin="round"/>
<path opacity="0.3" d="M208.907 201.2L125.619 210.438C125.406 210.462 125.211 210.57 125.077 210.737C124.943 210.904 124.881 211.117 124.905 211.33C124.929 211.542 125.037 211.737 125.205 211.87C125.373 212.003 125.587 212.065 125.801 212.041L209.089 202.817C209.195 202.807 209.297 202.776 209.391 202.725C209.484 202.675 209.566 202.606 209.633 202.523C209.699 202.441 209.748 202.345 209.776 202.243C209.805 202.141 209.813 202.035 209.799 201.93C209.79 201.823 209.759 201.719 209.709 201.625C209.659 201.53 209.59 201.446 209.507 201.378C209.424 201.311 209.328 201.26 209.225 201.229C209.122 201.198 209.014 201.188 208.907 201.2Z" fill="#142B71"/>
<path opacity="0.3" d="M209.55 206.978L113.763 217.585C113.651 217.588 113.541 217.614 113.44 217.661C113.339 217.708 113.248 217.776 113.174 217.86C113.101 217.943 113.045 218.041 113.012 218.148C112.978 218.254 112.967 218.366 112.979 218.477C112.991 218.588 113.026 218.695 113.082 218.791C113.137 218.888 113.213 218.972 113.303 219.038C113.393 219.104 113.496 219.151 113.605 219.175C113.714 219.2 113.827 219.201 113.937 219.18L209.731 208.572C209.931 208.534 210.109 208.422 210.229 208.259C210.35 208.095 210.404 207.893 210.381 207.691C210.358 207.49 210.26 207.305 210.106 207.172C209.952 207.04 209.753 206.97 209.55 206.978Z" fill="#142B71"/>
<path opacity="0.3" d="M185.187 215.494L114.406 223.333C114.3 223.344 114.197 223.376 114.104 223.427C114.011 223.478 113.928 223.546 113.862 223.629C113.795 223.711 113.745 223.806 113.715 223.907C113.686 224.009 113.676 224.115 113.688 224.221C113.712 224.434 113.821 224.629 113.989 224.763C114.158 224.897 114.373 224.959 114.587 224.935L185.369 217.096C185.474 217.084 185.577 217.052 185.67 217.001C185.763 216.95 185.845 216.881 185.911 216.798C185.978 216.715 186.027 216.62 186.056 216.518C186.086 216.417 186.095 216.31 186.083 216.205C186.071 216.1 186.038 215.998 185.987 215.905C185.936 215.812 185.866 215.731 185.783 215.665C185.7 215.599 185.605 215.55 185.502 215.52C185.4 215.491 185.293 215.482 185.187 215.494Z" fill="#142B71"/>
<path opacity="0.3" d="M230.039 198.149L221.59 199.085C220.454 199.211 219.635 200.23 219.761 201.361L220.702 209.773C220.828 210.905 221.852 211.72 222.988 211.594L231.437 210.658C232.574 210.532 233.393 209.512 233.266 208.381L232.326 199.969C232.199 198.838 231.176 198.023 230.039 198.149Z" stroke="#142B71" stroke-linecap="round" stroke-linejoin="round"/>
<path d="M223.083 204.623L225.857 207.233L229.521 201.659" stroke="#92E3A9" stroke-width="3" stroke-linecap="round" stroke-linejoin="round"/>
<path d="M139.659 147.988C139.732 147.124 139.517 146.259 139.047 145.528L138.118 143.888L136.274 144.926L137.279 146.687C137.778 147.567 137.574 148.109 136.954 148.455C136.335 148.801 135.76 148.711 135.262 147.83L133.108 144.024L130.796 144.475L133.259 148.801C134.385 150.779 136.017 151.344 137.929 150.305C138.233 150.132 138.515 149.922 138.768 149.681C138.66 149.433 138.642 149.156 138.714 148.896C138.787 148.636 138.947 148.408 139.168 148.252C139.316 148.138 139.482 148.049 139.659 147.988Z" fill="#92E3A9"/>
<path d="M129.609 142.391L130.048 143.144H132.594L131.483 141.188C130.985 140.307 131.181 139.751 131.801 139.405C132.42 139.058 133.002 139.164 133.501 140.052L134.257 141.368L136.093 140.33L135.413 139.134C134.287 137.163 132.655 136.591 130.743 137.674C130.304 137.91 129.914 138.226 129.594 138.607C130.028 138.746 130.483 138.81 130.939 138.795L129.126 139.472C128.993 139.965 128.967 140.48 129.051 140.984C129.134 141.487 129.324 141.967 129.609 142.391Z" fill="#92E3A9"/>
<path d="M143.732 134.372C143.975 134.251 144.228 134.153 144.488 134.078C145.463 133.642 145.682 132.242 145.599 131.257L144.594 130.016L141.889 131.52L143.581 134.484C143.625 134.439 143.676 134.401 143.732 134.372Z" fill="#92E3A9"/>
<path d="M155.256 140.262L157.092 139.224L150.072 126.901L148.327 127.879C148.886 128.014 149.286 128.278 149.301 128.684C148.757 128.759 148.092 128.684 147.503 128.789L151.039 137.915L146.566 132.363C146.578 132.486 146.56 132.61 146.512 132.724C146.465 132.838 146.39 132.939 146.294 133.017C146.09 133.16 145.795 133.16 145.637 133.348C145.478 133.536 145.501 133.762 145.365 133.928C145.229 134.093 145.017 134.138 144.851 134.259C144.684 134.379 144.503 134.687 144.314 134.89C144.223 134.986 144.108 135.056 143.982 135.094L148.954 143.82L150.647 142.858L145.682 134.146L152.06 142.06L153.903 141.022L150.178 131.445L155.256 140.262Z" fill="#92E3A9"/>
<path d="M159.903 129.534C160.038 129.601 160.157 129.694 160.254 129.808C160.352 129.921 160.425 130.053 160.47 130.196C160.629 129.266 160.426 128.311 159.903 127.525L158.989 125.915C157.863 123.944 156.299 123.41 154.349 124.508L151.485 126.126L158.513 138.456L160.334 137.426C159.745 137.057 159.087 136.741 158.528 136.342C158.266 136.176 158.05 135.945 157.901 135.673C157.83 135.535 157.801 135.38 157.817 135.227C157.833 135.073 157.894 134.928 157.992 134.808C158.12 134.7 158.276 134.631 158.441 134.609C158.607 134.586 158.776 134.611 158.929 134.68L157.818 132.724L158.74 132.205C159.246 131.931 159.687 131.551 160.032 131.091C159.646 130.482 158.974 129.188 159.903 129.534ZM157.735 130.482L156.813 131.001L154.432 126.826L155.354 126.307C155.974 125.96 156.473 126.051 156.971 126.931L158.029 128.782C158.528 129.624 158.354 130.098 157.735 130.482Z" fill="#92E3A9"/>
<path d="M170.324 131.783L169.326 130.023L166.122 131.829L161.437 123.606L161.226 123.771C161.089 123.898 160.923 123.988 160.742 124.035C160.651 124.055 160.556 124.042 160.474 123.997C160.392 123.953 160.329 123.881 160.296 123.794C160.27 123.677 160.27 123.557 160.296 123.44C160.297 122.74 160.075 122.058 159.661 121.492L158.15 122.364L165.17 134.687L170.324 131.783Z" fill="#92E3A9"/>
<path d="M169.447 127.473C169.659 126.924 170.316 126.72 170.686 126.224C170.72 126.173 170.75 126.12 170.777 126.066L170.022 124.802L171.933 123.726C171.898 123.606 171.836 123.496 171.752 123.403C171.478 123.269 171.185 123.178 170.883 123.132C170.836 123.038 170.813 122.935 170.814 122.831C170.816 122.726 170.843 122.624 170.892 122.532C170.942 122.44 171.013 122.361 171.099 122.302C171.186 122.242 171.285 122.205 171.389 122.192C171.518 122.192 171.669 122.192 171.767 122.131C171.836 122.049 171.871 121.945 171.865 121.838L171.692 121.537L169.017 123.042L167.067 119.611L170.422 117.708L169.417 115.947L164.127 118.957L169.326 128.082C169.335 127.874 169.376 127.669 169.447 127.473Z" fill="#92E3A9"/>
<path d="M176.482 128.308L175.477 126.547L172.115 128.443L171.11 126.72L169.87 127.879L169.44 128.293L171.178 131.34L176.482 128.308Z" fill="#92E3A9"/>
<path d="M173.981 113.991C173.981 114.254 173.792 114.548 173.535 114.57C173.405 114.569 173.275 114.548 173.15 114.51C172.916 114.514 172.683 114.492 172.455 114.442C172.405 114.422 172.359 114.394 172.319 114.36L170.097 115.616L171.102 117.384L173.135 116.233L179.18 126.765L181.122 125.667L175.077 115.135L177.117 113.984L176.112 112.223L174.026 113.397C173.989 113.592 174.004 113.795 173.981 113.991Z" fill="#92E3A9"/>
<path d="M182.467 121.454L183.978 124.11L186.019 122.959C186.067 122.825 186.128 122.697 186.2 122.575C186.649 121.922 187.254 121.389 187.961 121.025L188.898 120.446L188.278 119.348L184.915 121.251L182.86 117.64L185.535 116.135L184.53 114.375L181.855 115.879L179.905 112.426L183.268 110.53L182.263 108.77L176.974 111.779L180.79 118.482C181.711 117.993 182.172 119.754 182.467 121.454Z" fill="#92E3A9"/>
<path d="M143.332 145.799C143.649 145.852 143.838 146.168 144.088 146.378C144.178 146.462 144.283 146.528 144.397 146.574C144.542 146.517 144.683 146.451 144.82 146.378C146.725 145.303 147.125 143.587 146.007 141.609L145.894 141.413L143.279 141.345L144.133 142.85C144.632 143.73 144.435 144.287 143.815 144.633C143.196 144.979 142.614 144.866 142.115 143.986L138.337 137.328C137.831 136.448 138.035 135.899 138.654 135.545C139.274 135.191 139.848 135.312 140.355 136.192L142.916 140.706C143.703 140.512 144.509 140.411 145.319 140.405L142.365 135.222C141.246 133.25 139.561 132.716 137.649 133.792C135.738 134.868 135.337 136.591 136.463 138.562L140.113 144.972C140.343 145.466 140.688 145.898 141.119 146.234C141.55 146.57 142.054 146.8 142.591 146.905C142.587 146.86 142.587 146.815 142.591 146.77C142.501 146.281 142.863 145.709 143.332 145.799Z" fill="#92E3A9"/>
<path d="M169.424 110.418L175.356 107.07C173.656 107.536 172.16 108.951 170.407 108.755C170.09 108.672 169.757 108.672 169.44 108.755C169.241 108.882 169.099 109.079 169.04 109.306C168.981 109.534 169.01 109.775 169.122 109.981C169.199 110.142 169.301 110.289 169.424 110.418Z" fill="#92E3A9"/>
<path d="M154.546 118.821C154.533 118.691 154.559 118.56 154.621 118.445C154.767 118.495 154.92 118.521 155.075 118.52L157.123 117.369C157.443 117.008 157.809 116.689 158.211 116.421C158.599 116.214 159.01 116.053 159.435 115.94L159.888 115.804L163.667 113.683C163.706 113.606 163.76 113.537 163.825 113.479C163.884 113.441 163.947 113.41 164.014 113.389L160.115 112.216L159.065 112.802L158.951 113.63L154.455 116.022C154.01 116.299 153.514 116.486 152.997 116.571C152.803 116.594 152.608 116.594 152.415 116.571L146.007 120.19C146.058 120.492 146.144 120.788 146.264 121.07C145.888 121.001 145.53 120.855 145.214 120.642L143.899 121.394C144.836 122.011 145.758 122.643 146.657 123.312L154.546 118.821Z" fill="#92E3A9"/>
<path d="M181.976 103.338L178.878 101.608L177.412 102.435C178.275 103.32 179.391 103.919 180.608 104.151L181.976 103.338Z" fill="#92E3A9"/>
<path d="M198.638 121.552L186.941 101.021C186.486 100.227 185.734 99.6447 184.849 99.4008C183.964 99.157 183.018 99.2716 182.218 99.7196L180.812 100.517L181.349 101.036C181.908 101.593 182.482 102.157 183.004 102.751L183.714 102.353C183.812 102.298 183.928 102.284 184.037 102.313C184.146 102.343 184.239 102.414 184.296 102.511L196.001 123.049C196.055 123.148 196.068 123.264 196.037 123.373C196.006 123.481 195.933 123.573 195.835 123.628L179.913 132.656C181.288 132.739 182.679 132.543 184.054 132.701C184.549 132.763 185.041 132.851 185.527 132.964L197.331 126.299C197.732 126.075 198.084 125.773 198.367 125.413C198.65 125.052 198.858 124.639 198.98 124.197C199.102 123.756 199.134 123.294 199.075 122.84C199.017 122.386 198.868 121.948 198.638 121.552Z" fill="#92E3A9"/>
<path d="M126.957 147.68L121.456 138.005C121.427 137.956 121.409 137.902 121.402 137.846C121.394 137.79 121.398 137.733 121.413 137.679C121.427 137.624 121.453 137.573 121.487 137.529C121.522 137.484 121.565 137.446 121.614 137.418L137.483 128.451C137.43 128.33 137.362 128.21 137.317 128.09C137.541 128.08 137.765 128.106 137.982 128.165L144.397 124.546C144.186 124.478 143.982 124.396 143.778 124.32L140.755 123.124L138.337 124.493L140.967 126.096C140.052 125.539 138.186 125.464 136.576 125.487L120.156 134.793C119.357 135.244 118.771 135.993 118.526 136.875C118.281 137.756 118.397 138.698 118.849 139.495L123.624 147.876C123.844 147.815 124.07 147.763 124.289 147.725C124.895 147.638 125.507 147.608 126.118 147.635C126.398 147.633 126.679 147.648 126.957 147.68Z" fill="#92E3A9"/>
<path d="M146.558 151.457C146.828 151.697 147.134 151.892 147.465 152.036C147.805 152.186 148.259 152.547 147.994 152.788C146.77 153.345 145.259 152.931 144.057 153.541C143.4 153.857 142.765 154.481 142.062 154.293C142.912 154.807 143.677 155.449 144.329 156.196L174.336 139.254C174.336 139.134 174.374 139.013 174.397 138.885C174.397 138.649 174.452 138.415 174.557 138.203C174.662 137.99 174.815 137.804 175.003 137.659C175.191 137.514 175.409 137.414 175.642 137.365C175.875 137.317 176.116 137.322 176.346 137.381C176.736 137.364 177.125 137.404 177.502 137.501L181.243 135.387C180.73 134.506 180.122 133.684 179.429 132.935L146.558 151.457Z" fill="#92E3A9"/>
<path d="M141.7 156.429C140.976 156.196 140.309 155.814 139.743 155.308L133.758 158.694C133.709 158.722 133.656 158.74 133.6 158.747C133.544 158.755 133.488 158.751 133.434 158.736C133.38 158.721 133.329 158.696 133.285 158.662C133.24 158.627 133.203 158.585 133.176 158.536L127.886 149.305C127.38 149.13 126.84 149.069 126.307 149.124C125.695 149.245 125.159 149.952 125.491 150.471C125.803 150.479 126.108 150.57 126.374 150.733C126.639 150.897 126.856 151.129 127.002 151.404C126.676 151.662 126.318 151.877 125.937 152.043L130.471 160.025C130.696 160.429 131 160.783 131.365 161.067C131.729 161.352 132.148 161.561 132.595 161.682C133.042 161.803 133.509 161.834 133.968 161.773C134.427 161.712 134.87 161.561 135.269 161.327L143.113 156.896L143.022 156.843C142.589 156.682 142.148 156.543 141.7 156.429Z" fill="#92E3A9"/>
<g opacity="0.2">
<path d="M139.659 147.988C139.732 147.124 139.517 146.259 139.047 145.528L138.118 143.888L136.274 144.926L137.279 146.687C137.778 147.567 137.574 148.109 136.954 148.455C136.335 148.801 135.76 148.711 135.262 147.83L133.108 144.024L130.796 144.475L133.259 148.801C134.385 150.779 136.017 151.344 137.929 150.305C138.233 150.132 138.515 149.922 138.768 149.681C138.66 149.433 138.642 149.156 138.714 148.896C138.787 148.636 138.947 148.408 139.168 148.252C139.316 148.138 139.482 148.049 139.659 147.988Z" fill="#142B71"/>
<path d="M129.609 142.391L130.048 143.143H132.594L131.483 141.187C130.985 140.307 131.181 139.75 131.801 139.404C132.42 139.058 133.002 139.164 133.501 140.051L134.257 141.368L136.093 140.33L135.413 139.133C134.287 137.162 132.655 136.591 130.743 137.674C130.304 137.91 129.914 138.226 129.594 138.607C130.028 138.746 130.483 138.809 130.939 138.795L129.126 139.472C128.993 139.965 128.967 140.48 129.051 140.984C129.134 141.487 129.324 141.967 129.609 142.391Z" fill="#142B71"/>
<path d="M143.732 134.371C143.975 134.251 144.228 134.152 144.488 134.078C145.463 133.642 145.682 132.242 145.599 131.257L144.594 130.015L141.889 131.52L143.581 134.484C143.625 134.439 143.676 134.401 143.732 134.371Z" fill="#142B71"/>
<path d="M155.256 140.262L157.092 139.224L150.072 126.901L148.327 127.879C148.886 128.014 149.286 128.278 149.301 128.684C148.757 128.759 148.092 128.684 147.503 128.789L151.039 137.915L146.566 132.363C146.578 132.486 146.56 132.61 146.512 132.724C146.465 132.838 146.39 132.939 146.294 133.017C146.09 133.16 145.795 133.16 145.637 133.348C145.478 133.536 145.501 133.762 145.365 133.928C145.229 134.093 145.017 134.138 144.851 134.259C144.684 134.379 144.503 134.687 144.314 134.89C144.223 134.986 144.108 135.056 143.982 135.094L148.954 143.82L150.647 142.858L145.682 134.146L152.06 142.06L153.903 141.022L150.178 131.445L155.256 140.262Z" fill="#142B71"/>
<path d="M159.903 129.534C160.038 129.601 160.157 129.694 160.254 129.808C160.352 129.921 160.425 130.053 160.47 130.196C160.629 129.266 160.426 128.311 159.903 127.525L158.989 125.915C157.863 123.944 156.299 123.41 154.349 124.508L151.485 126.126L158.513 138.456L160.334 137.426C159.745 137.057 159.087 136.741 158.528 136.342C158.266 136.176 158.05 135.945 157.901 135.673C157.83 135.535 157.801 135.38 157.817 135.227C157.833 135.073 157.894 134.928 157.992 134.808C158.12 134.7 158.276 134.631 158.441 134.609C158.607 134.586 158.776 134.611 158.929 134.68L157.818 132.724L158.74 132.205C159.246 131.931 159.687 131.551 160.032 131.091C159.646 130.482 158.974 129.188 159.903 129.534ZM157.735 130.482L156.813 131.001L154.432 126.826L155.354 126.307C155.974 125.96 156.473 126.051 156.971 126.931L158.029 128.782C158.528 129.624 158.354 130.098 157.735 130.482Z" fill="#142B71"/>
<path d="M170.324 131.783L169.326 130.023L166.122 131.829L161.437 123.606L161.226 123.771C161.089 123.898 160.923 123.988 160.742 124.035C160.651 124.055 160.556 124.042 160.474 123.997C160.392 123.953 160.329 123.881 160.296 123.794C160.27 123.677 160.27 123.557 160.296 123.44C160.297 122.74 160.075 122.058 159.661 121.492L158.15 122.364L165.17 134.687L170.324 131.783Z" fill="#142B71"/>
<path d="M169.447 127.473C169.659 126.923 170.316 126.72 170.686 126.224C170.72 126.173 170.75 126.12 170.777 126.066L170.022 124.802L171.933 123.726C171.898 123.606 171.836 123.495 171.752 123.402C171.478 123.269 171.185 123.178 170.883 123.132C170.836 123.038 170.813 122.935 170.814 122.83C170.816 122.726 170.843 122.623 170.892 122.531C170.942 122.439 171.013 122.36 171.099 122.301C171.186 122.242 171.285 122.204 171.389 122.191C171.518 122.191 171.669 122.191 171.767 122.131C171.836 122.049 171.871 121.944 171.865 121.838L171.692 121.537L169.017 123.041L167.067 119.611L170.422 117.707L169.417 115.947L164.127 118.956L169.326 128.082C169.335 127.874 169.376 127.668 169.447 127.473Z" fill="#142B71"/>
<path d="M176.482 128.308L175.477 126.547L172.115 128.443L171.11 126.72L169.87 127.879L169.44 128.292L171.178 131.339L176.482 128.308Z" fill="#142B71"/>
<path d="M173.981 113.991C173.981 114.254 173.792 114.548 173.535 114.57C173.405 114.569 173.275 114.548 173.15 114.51C172.916 114.514 172.683 114.492 172.455 114.442C172.405 114.422 172.359 114.394 172.319 114.36L170.097 115.616L171.102 117.384L173.135 116.233L179.18 126.765L181.122 125.667L175.077 115.135L177.117 113.984L176.112 112.223L174.026 113.397C173.989 113.592 174.004 113.795 173.981 113.991Z" fill="#142B71"/>
<path d="M182.467 121.454L183.978 124.11L186.019 122.959C186.067 122.825 186.128 122.697 186.2 122.575C186.649 121.922 187.254 121.389 187.961 121.025L188.898 120.446L188.278 119.348L184.915 121.251L182.86 117.64L185.535 116.135L184.53 114.375L181.855 115.879L179.905 112.426L183.268 110.53L182.263 108.77L176.974 111.779L180.79 118.482C181.711 117.993 182.172 119.754 182.467 121.454Z" fill="#142B71"/>
<path d="M143.332 145.799C143.649 145.852 143.838 146.168 144.088 146.378C144.178 146.462 144.283 146.528 144.397 146.574C144.542 146.517 144.683 146.451 144.82 146.378C146.725 145.303 147.125 143.587 146.007 141.609L145.894 141.413L143.279 141.345L144.133 142.85C144.632 143.73 144.435 144.287 143.815 144.633C143.196 144.979 142.614 144.866 142.115 143.986L138.337 137.328C137.831 136.448 138.035 135.899 138.654 135.545C139.274 135.191 139.848 135.312 140.355 136.192L142.916 140.706C143.703 140.512 144.509 140.411 145.319 140.405L142.365 135.222C141.246 133.25 139.561 132.716 137.649 133.792C135.738 134.868 135.337 136.591 136.463 138.562L140.113 144.972C140.343 145.466 140.688 145.898 141.119 146.234C141.55 146.57 142.054 146.8 142.591 146.905C142.587 146.86 142.587 146.815 142.591 146.77C142.501 146.281 142.863 145.709 143.332 145.799Z" fill="#142B71"/>
<path d="M169.424 110.418L175.356 107.07C173.656 107.536 172.16 108.951 170.407 108.755C170.09 108.672 169.757 108.672 169.44 108.755C169.241 108.882 169.099 109.079 169.04 109.306C168.981 109.534 169.01 109.775 169.122 109.981C169.199 110.142 169.301 110.289 169.424 110.418Z" fill="#142B71"/>
<path d="M154.546 118.821C154.533 118.691 154.559 118.56 154.621 118.445C154.767 118.495 154.92 118.521 155.075 118.52L157.122 117.369C157.443 117.008 157.809 116.689 158.211 116.421C158.599 116.214 159.009 116.053 159.435 115.94L159.888 115.804L163.666 113.683C163.706 113.606 163.76 113.537 163.825 113.479C163.884 113.441 163.947 113.41 164.014 113.389L160.115 112.216L159.064 112.802L158.951 113.63L154.455 116.022C154.01 116.299 153.514 116.486 152.997 116.571C152.803 116.594 152.608 116.594 152.415 116.571L146.007 120.19C146.058 120.492 146.144 120.788 146.264 121.07C145.888 121.001 145.53 120.855 145.213 120.642L143.899 121.394C144.836 122.011 145.757 122.643 146.657 123.312L154.546 118.821Z" fill="#142B71"/>
<path d="M181.976 103.338L178.878 101.608L177.412 102.435C178.275 103.32 179.391 103.919 180.608 104.151L181.976 103.338Z" fill="#142B71"/>
<path d="M198.638 121.552L186.941 101.021C186.486 100.227 185.734 99.6447 184.849 99.4008C183.964 99.157 183.018 99.2716 182.218 99.7196L180.812 100.517L181.349 101.036C181.908 101.593 182.482 102.157 183.004 102.751L183.714 102.353C183.812 102.298 183.928 102.284 184.037 102.313C184.146 102.343 184.239 102.414 184.296 102.511L196.001 123.049C196.055 123.148 196.068 123.264 196.037 123.373C196.006 123.481 195.933 123.573 195.835 123.628L179.913 132.656C181.288 132.739 182.679 132.543 184.054 132.701C184.549 132.763 185.041 132.851 185.527 132.964L197.331 126.299C197.732 126.075 198.084 125.773 198.367 125.413C198.65 125.052 198.858 124.639 198.98 124.197C199.102 123.756 199.134 123.294 199.075 122.84C199.017 122.386 198.868 121.948 198.638 121.552Z" fill="#142B71"/>
<path d="M126.957 147.68L121.456 138.005C121.427 137.956 121.409 137.902 121.402 137.846C121.394 137.79 121.398 137.733 121.413 137.679C121.427 137.624 121.453 137.573 121.487 137.529C121.522 137.484 121.565 137.446 121.614 137.418L137.483 128.451C137.43 128.33 137.362 128.21 137.317 128.09C137.541 128.08 137.765 128.106 137.982 128.165L144.397 124.546C144.186 124.478 143.982 124.396 143.778 124.32L140.755 123.124L138.337 124.493L140.967 126.096C140.052 125.539 138.186 125.464 136.576 125.487L120.156 134.793C119.357 135.244 118.771 135.993 118.526 136.875C118.281 137.756 118.397 138.698 118.849 139.495L123.624 147.876C123.844 147.815 124.07 147.763 124.289 147.725C124.895 147.638 125.507 147.608 126.118 147.635C126.398 147.633 126.679 147.648 126.957 147.68Z" fill="#142B71"/>
<path d="M146.558 151.456C146.828 151.697 147.134 151.892 147.465 152.036C147.805 152.186 148.259 152.547 147.994 152.788C146.77 153.345 145.259 152.931 144.057 153.54C143.4 153.856 142.765 154.481 142.062 154.293C142.912 154.806 143.677 155.449 144.329 156.196L174.336 139.254C174.336 139.133 174.374 139.013 174.397 138.885C174.397 138.648 174.452 138.415 174.557 138.202C174.662 137.99 174.815 137.804 175.003 137.659C175.191 137.514 175.409 137.413 175.642 137.365C175.875 137.317 176.116 137.322 176.346 137.381C176.736 137.363 177.125 137.404 177.502 137.501L181.243 135.387C180.73 134.506 180.122 133.684 179.429 132.934L146.558 151.456Z" fill="#142B71"/>
<path d="M141.7 156.429C140.976 156.196 140.309 155.814 139.743 155.308L133.758 158.694C133.709 158.722 133.656 158.74 133.6 158.747C133.544 158.755 133.488 158.751 133.434 158.736C133.38 158.721 133.329 158.696 133.285 158.662C133.24 158.627 133.203 158.585 133.176 158.536L127.886 149.305C127.38 149.13 126.84 149.069 126.307 149.124C125.695 149.245 125.159 149.952 125.491 150.471C125.803 150.479 126.108 150.57 126.374 150.733C126.639 150.897 126.856 151.129 127.002 151.404C126.676 151.662 126.318 151.877 125.937 152.043L130.471 160.025C130.696 160.429 131 160.783 131.365 161.067C131.729 161.352 132.148 161.561 132.595 161.682C133.042 161.803 133.509 161.834 133.968 161.773C134.427 161.712 134.87 161.561 135.269 161.327L143.113 156.896L143.022 156.843C142.589 156.682 142.148 156.543 141.7 156.429Z" fill="#142B71"/>
</g>
<path opacity="0.3" d="M107.673 129.564C112.282 132.935 116.136 149.124 116.484 163.968C116.831 178.811 124.04 203.841 124.902 207.941C125.763 212.041 125.446 217.954 130.796 209.724C136.146 201.493 151.795 187.207 158.316 191.954C164.838 196.701 153.858 212.658 147.911 221.249C141.964 229.841 141.36 244.97 134.234 254.441C127.108 263.913 120.67 278.215 113.688 277.996C106.705 277.778 60.4596 311.934 60.4596 311.934L61.3664 265.184L102.927 197.476L107.673 129.564Z" fill="black" fill-opacity="0.7"/>
<path d="M162.11 194.248C161.876 195.715 153.737 206.451 148.954 214.486C144.171 222.52 139.69 236.506 138.488 238.56C137.287 240.614 122.619 253.441 118.599 258.805C114.579 264.169 107.401 266.539 100.23 271.594C95.6201 274.844 81.2551 291.613 71.5753 303.191C66.195 309.624 62.2581 314.476 62.2581 314.476L0.377808 298.414C0.377808 298.414 5.50112 294.209 12.2415 288.536H12.2869L12.3549 288.484C23.4327 279.117 38.8707 265.899 43.1325 260.911C50.0014 252.876 59.568 243.33 59.568 243.33C58.9861 232.173 60.1725 221.603 59.1221 217.585C58.5781 215.486 57.6108 203.547 56.8552 199.876C55.0189 190.494 47.0317 180.774 46.1325 176.945C45.2333 173.116 34.6919 156.813 39.8379 153.804C40.7734 153.217 41.8855 152.975 42.9814 153.119C49.9334 154.075 55.6612 170.791 59.6057 175.049C61.2959 177.065 62.8269 179.208 64.185 181.459C67.2983 186.372 70.3511 191.894 70.3511 191.894C71.545 187.131 62.8777 170.167 60.4823 154.097C58.0869 138.028 51.218 129.399 60.4823 128.406C61.2435 128.321 62.0141 128.387 62.7493 128.601C69.2705 130.497 72.0967 143.986 75.9958 157.076C76.3585 158.28 79.3282 166.924 81.6405 173.59C83.1518 177.953 84.3609 181.466 84.3609 181.466C84.6556 173.281 82.0939 165.668 81.6708 158.25C81.4894 155.278 82.4264 143.369 81.2476 131.467C80.235 121.424 80.696 117.354 84.6405 116.564C85.4854 116.413 86.3466 116.372 87.2021 116.444C94.0408 116.873 96.4664 134.966 96.4664 142.022C96.4664 146.123 97.1692 154.127 97.7586 160.131C98.1893 164.472 98.5596 167.767 98.5596 167.767C98.5596 167.767 99.7535 157.799 98.8618 136.297C98.6578 131.588 98.9676 128.217 100.827 126.856C101.847 126.103 103.32 125.976 105.436 126.547C111.413 128.157 113.355 150.208 113.355 158.543C113.355 166.879 118.138 181.158 119.038 192.398C119.937 203.637 123.851 217.45 123.851 217.45C123.851 217.45 126.065 218.345 127.554 218.052C129.043 217.758 139.365 202.577 139.365 202.577C144.171 192.187 153.526 189.035 158.619 190.201C160.961 190.735 162.473 192.172 162.11 194.248Z" fill="white"/>
<path opacity="0.4" d="M162.11 194.248C161.876 195.715 153.737 206.451 148.954 214.486C144.171 222.52 139.69 236.506 138.488 238.56C137.287 240.614 122.62 253.441 118.599 258.805C114.579 264.169 107.401 266.539 100.23 271.594C95.6201 274.844 81.2552 291.613 71.5753 303.192C72.6408 298.994 75.0286 293.63 81.2703 288.476C92.1064 279.516 92.7562 272.489 98.5823 266.539C104.408 260.588 114.67 262.371 118.358 255.254C122.045 248.137 134.906 241.562 137.597 235.31C140.287 229.058 134.906 227.734 139.69 220.211C144.473 212.688 149.113 210.86 148.433 207.91C147.753 204.961 145.742 200.493 149.891 196.769C152.483 194.452 155.528 191.54 158.641 190.201C160.961 190.735 162.473 192.172 162.11 194.248Z" fill="#92E3A9"/>
<path opacity="0.4" d="M84.58 229.562C82.5927 228.569 84.1871 226.59 82.7892 224.943C81.3912 223.295 78.2024 233.933 77.4996 233.971C76.7968 234.008 74.6584 228.561 73.812 228.02C72.9657 227.478 72.467 229.758 71.2655 233.971C70.064 238.184 65.651 240.32 63.0893 243.329C60.5277 246.339 45.1199 262.702 41.3341 268.848C37.5483 274.995 14.1685 287.159 12.3549 288.469C23.4328 279.117 38.8707 265.899 43.1326 260.911C50.0015 252.876 59.568 243.329 59.568 243.329C58.9861 232.173 60.1725 221.603 59.1222 217.585C58.5781 215.486 57.6109 203.547 56.8552 199.876C55.019 190.494 47.0317 180.774 46.1325 176.945C45.2333 173.116 34.692 156.813 39.8379 153.804C40.7735 153.217 41.8855 152.975 42.9815 153.119C41.8102 153.947 40.6692 155.135 41.7346 156.881C43.6313 159.935 45.7169 163.147 45.7169 166.525C45.7169 169.903 51.4976 174.658 53.7419 177.81C55.9862 180.962 53.8931 179.849 55.3892 184.167C56.8854 188.485 58.6763 187.583 59.568 191.946C60.4597 196.31 65.447 199.093 64.6535 204.532C63.8601 209.972 67.0414 217.54 67.0414 217.54C67.0414 217.54 69.6333 210.205 68.6887 206.255C67.7441 202.306 68.8398 197.325 67.9331 195.986C67.1774 194.782 65.1069 186.612 64.1548 181.534C67.2681 186.447 70.3209 191.969 70.3209 191.969C71.5148 187.207 62.8475 170.242 60.4521 154.172C58.0567 138.103 51.1878 129.474 60.4521 128.481C61.2133 128.396 61.9839 128.462 62.7191 128.676C66.6711 136.026 63.9205 141.466 63.044 144.655C62.0843 148.131 67.797 157.054 68.6434 163.2C69.399 168.94 70.9557 168.346 71.1597 168.241C70.9859 168.399 69.5124 169.896 70.404 174.154C71.3335 178.668 77.9605 189.388 77.9605 192.383C77.9605 195.377 77.4165 200.304 77.4165 201.764C77.4165 203.223 82.706 212.988 83.3408 215.546C83.9755 218.104 83.0914 210.619 84.5347 208.023C85.978 205.428 86.7412 196.37 86.9301 196.859C89.4162 203.148 86.575 230.54 84.58 229.562Z" fill="#92E3A9"/>
<path opacity="0.4" d="M88.8646 162.335C87.1719 164.885 87.2173 184.792 84.3307 184.86C82.9327 184.86 82.2526 179.857 81.6859 173.575C83.1972 177.938 84.4062 181.452 84.4062 181.452C84.7009 173.266 82.1393 165.653 81.7161 158.235C81.5348 155.263 82.4718 143.354 81.293 131.452C80.2804 121.409 80.7413 117.339 84.6858 116.549C85.517 119.227 87.5573 122.387 88.0787 125.321C88.789 129.369 87.3986 132.716 86.2047 133.22C85.0108 133.724 84.8067 136.335 86.3029 136.719C87.7991 137.102 86.3029 156.098 86.9981 158.536C87.6933 160.973 90.5648 159.822 88.8646 162.335Z" fill="#92E3A9"/>
<path opacity="0.4" d="M104.393 140.051C101.287 141.413 101.121 143.851 100.192 147.349C99.2623 150.847 101.522 155.955 100.192 163.983C98.8618 172.01 103.713 177.186 100.192 186.168C96.6704 195.151 98.3253 178.645 97.7359 171.122C97.5328 167.458 97.5479 163.785 97.7812 160.123C98.2119 164.464 98.5822 167.759 98.5822 167.759C98.5822 167.759 99.7761 157.791 98.8845 136.29C98.6804 131.58 98.9902 128.21 100.849 126.848C104.038 129.73 107.038 138.893 104.393 140.051Z" fill="#92E3A9"/>
<path d="M62.2581 314.484C62.2581 314.484 93.0509 276.687 100.23 271.602C107.408 266.516 114.587 264.161 118.599 258.812C122.612 253.463 137.294 240.651 138.488 238.567C139.682 236.484 144.171 222.498 148.954 214.493C153.737 206.489 161.876 195.685 162.11 194.256C163.153 187.703 146.415 187.41 139.387 202.592C139.387 202.592 129.073 217.766 127.577 218.067C126.08 218.368 123.874 217.465 123.874 217.465C123.874 217.465 119.96 203.66 119.06 192.413C118.161 181.166 113.378 166.872 113.378 158.558C113.378 150.245 111.436 128.172 105.459 126.562C99.4815 124.952 98.5747 129.03 98.8845 136.343C99.7762 157.844 98.5823 167.812 98.5823 167.812C98.5823 167.812 96.4891 149.132 96.4891 142.068C96.4891 135.003 94.0635 116.91 87.2248 116.489C80.9454 116.09 80.0688 119.603 81.2703 131.535C82.4718 143.467 81.5121 155.346 81.6934 158.318C82.1393 165.758 84.7161 173.364 84.3836 181.534C84.3836 181.534 76.6079 159.123 76.011 157.129C71.6811 142.519 68.6811 127.473 60.4596 128.376C51.1954 129.369 58.0718 137.998 60.4596 154.067C62.8475 170.137 71.5224 187.101 70.3285 191.864C70.3285 191.864 63.1573 178.901 59.5831 175.019C55.0492 170.137 48.203 148.861 39.8304 153.774C34.6844 156.783 45.2559 173.138 46.1476 176.968C47.0393 180.797 55.0341 190.509 56.8703 199.898C57.626 203.57 58.5705 215.509 59.1373 217.608C60.1876 221.625 59.0012 232.195 59.5831 243.352C59.5831 243.352 50.0165 252.877 43.1477 260.911C36.2788 268.946 0.392944 298.414 0.392944 298.414" stroke="#142B71" stroke-linecap="round" stroke-linejoin="round"/>
<path d="M123.874 217.457C125.253 220.847 125.253 224.638 123.874 228.027" stroke="#142B71" stroke-linecap="round" stroke-linejoin="round"/>
<path d="M126.39 218.089C127.248 218.717 127.884 219.599 128.205 220.609C128.527 221.619 128.519 222.704 128.181 223.709" stroke="#142B71" stroke-linecap="round" stroke-linejoin="round"/>
<path d="M98.5823 167.759C98.5823 167.759 100.978 184.574 99.9273 187.696" stroke="#142B71" stroke-linecap="round" stroke-linejoin="round"/>
<path d="M84.3835 181.451C84.64 183.076 84.64 184.731 84.3835 186.357" stroke="#142B71" stroke-linecap="round" stroke-linejoin="round"/>
<path d="M70.3361 191.864C70.3361 191.864 70.7819 194.399 70.3361 194.993" stroke="#142B71" stroke-linecap="round" stroke-linejoin="round"/>
<path d="M146.113 206.15C146.113 206.15 148.818 207.61 149.702 209.724" stroke="#142B71" stroke-linecap="round" stroke-linejoin="round"/>
<path d="M84.4818 136.29C85.3587 136.499 86.2744 136.486 87.1447 136.251C88.015 136.015 88.8117 135.566 89.4616 134.943" stroke="#142B71" stroke-linecap="round" stroke-linejoin="round"/>
<path d="M85.3961 160.469C85.3961 160.469 90.7764 162.252 92.7259 160.469" stroke="#142B71" stroke-linecap="round" stroke-linejoin="round"/>
<path d="M102.92 165.675C102.92 165.675 106.501 164.336 108.897 165.081" stroke="#142B71" stroke-linecap="round" stroke-linejoin="round"/>
<path d="M68.6887 170.438C68.6887 170.438 71.53 166.714 73.7743 167.759" stroke="#142B71" stroke-linecap="round" stroke-linejoin="round"/>
<path d="M57.029 181.451C57.029 181.451 54.49 182.64 53.7419 183.904" stroke="#142B71" stroke-linecap="round" stroke-linejoin="round"/>
<path d="M59.568 243.33C60.1909 242.634 60.7427 241.878 61.2153 241.073C61.6611 240.177 61.0642 230.653 61.2153 224.522" stroke="#142B71" stroke-linecap="round" stroke-linejoin="round"/>
<path d="M90.9276 280.825C87.4062 284.752 76.608 291.869 72.2781 296.18" stroke="#142B71" stroke-linecap="round" stroke-linejoin="round"/>
<path d="M105.156 191.864C103.365 196.927 105.307 203.321 105.156 206.158C105.005 208.994 104.401 221.956 104.401 221.956" stroke="#142B71" stroke-linecap="round" stroke-linejoin="round"/>
<path d="M88.8646 191.864C86.4768 195.881 87.2249 201.237 87.973 203.901C88.7211 206.564 88.0561 217.442 88.0561 217.442" stroke="#142B71" stroke-linecap="round" stroke-linejoin="round"/>
<path d="M63.1573 204.66C62.9593 207.28 63.4818 209.905 64.6686 212.251" stroke="#142B71" stroke-linecap="round" stroke-linejoin="round"/>
<path d="M77.953 196.776C76.6079 201.689 78.4064 203.916 78.5575 204.66" stroke="#142B71" stroke-linecap="round" stroke-linejoin="round"/>
<path opacity="0.3" d="M199.363 164.336L196.817 149.621C196.704 148.967 196.726 148.298 196.88 147.652C197.034 147.007 197.318 146.4 197.714 145.866C198.11 145.333 198.61 144.885 199.184 144.549C199.759 144.213 200.395 143.996 201.056 143.911L206.761 143.159C206.761 143.159 204.857 139.314 210.985 128.112C217.114 116.91 246.576 87.1561 268.914 137.14C291.251 187.124 311.661 288.98 311.661 288.98C311.661 288.98 251.367 219.075 249.448 215.494C247.529 211.913 229.174 214.057 224.935 204.45C220.695 194.843 211.794 167.428 211.794 167.428L204.902 168.369C203.635 168.54 202.35 168.215 201.317 167.463C200.284 166.711 199.584 165.591 199.363 164.336Z" fill="black" fill-opacity="0.7"/>
<path d="M252.501 130.572L240.932 132.664L224.851 135.575L203.791 139.389C203.388 139.463 202.973 139.457 202.571 139.371C202.17 139.285 201.789 139.121 201.452 138.888C201.114 138.655 200.826 138.358 200.604 138.015C200.381 137.671 200.23 137.287 200.157 136.884L195.532 111.569C195.387 110.757 195.57 109.921 196.041 109.243C196.512 108.565 197.234 108.1 198.049 107.95L210.298 105.693L228.116 102.473L246.758 99.0952C247.162 99.0214 247.576 99.0277 247.978 99.1138C248.379 99.1998 248.76 99.3639 249.097 99.5967C249.435 99.8294 249.723 100.126 249.946 100.47C250.168 100.814 250.32 101.198 250.392 101.6L255.017 126.916C255.097 127.321 255.095 127.737 255.011 128.141C254.927 128.546 254.763 128.929 254.529 129.269C254.295 129.61 253.995 129.9 253.646 130.124C253.298 130.348 252.909 130.5 252.501 130.572Z" fill="#92E3A9"/>
<mask id="mask0_449_1785" style="mask-type:luminance" maskUnits="userSpaceOnUse" x="195" y="99" width="61" height="41">
<path d="M252.501 130.572L240.932 132.664L224.851 135.575L203.791 139.389C203.388 139.463 202.973 139.457 202.571 139.371C202.17 139.285 201.789 139.121 201.452 138.888C201.114 138.655 200.826 138.358 200.604 138.015C200.381 137.671 200.23 137.287 200.157 136.884L195.532 111.569C195.387 110.757 195.57 109.921 196.041 109.243C196.512 108.565 197.234 108.1 198.049 107.95L210.298 105.693L228.116 102.473L246.758 99.0952C247.162 99.0214 247.576 99.0277 247.978 99.1138C248.379 99.1998 248.76 99.3639 249.097 99.5967C249.435 99.8294 249.723 100.126 249.946 100.47C250.168 100.814 250.32 101.198 250.392 101.6L255.017 126.916C255.097 127.321 255.095 127.737 255.011 128.141C254.927 128.546 254.763 128.929 254.529 129.269C254.295 129.61 253.995 129.9 253.646 130.124C253.298 130.348 252.909 130.5 252.501 130.572Z" fill="white"/>
</mask>
<g mask="url(#mask0_449_1785)">
<path opacity="0.3" d="M244.317 113.765L240.932 132.664L224.851 135.575C220.197 133.536 212.519 129.985 210.985 128.052C209.157 125.795 209.414 112.494 210.298 105.693L228.116 102.473C234.395 106.784 244.317 113.765 244.317 113.765Z" fill="black" fill-opacity="0.7"/>
<path opacity="0.3" d="M206.988 138.81L203.791 139.389C203.388 139.463 202.973 139.457 202.571 139.371C202.17 139.285 201.789 139.121 201.452 138.888C201.114 138.655 200.826 138.358 200.604 138.014C200.381 137.671 200.23 137.286 200.157 136.884L195.532 111.569C195.387 110.757 195.57 109.921 196.041 109.243C196.512 108.565 197.234 108.1 198.049 107.95L201.237 107.371C200.423 107.521 199.702 107.986 199.232 108.664C198.762 109.342 198.581 110.178 198.729 110.989L203.353 136.305C203.426 136.707 203.578 137.091 203.8 137.435C204.022 137.779 204.311 138.076 204.648 138.309C204.986 138.541 205.366 138.705 205.768 138.791C206.169 138.877 206.584 138.884 206.988 138.81Z" fill="black" fill-opacity="0.7"/>
</g>
<path d="M252.501 130.572L240.932 132.664L224.851 135.575L203.791 139.389C203.388 139.463 202.973 139.457 202.571 139.371C202.17 139.285 201.789 139.121 201.452 138.888C201.114 138.655 200.826 138.358 200.604 138.015C200.381 137.671 200.23 137.287 200.157 136.884L195.532 111.569C195.387 110.757 195.57 109.921 196.041 109.243C196.512 108.565 197.234 108.1 198.049 107.95L210.298 105.693L228.116 102.473L246.758 99.0952C247.162 99.0214 247.576 99.0277 247.978 99.1138C248.379 99.1998 248.76 99.3639 249.098 99.5967C249.435 99.8294 249.723 100.126 249.946 100.47C250.168 100.814 250.32 101.198 250.392 101.6L255.017 126.916C255.097 127.321 255.095 127.737 255.011 128.141C254.927 128.546 254.763 128.929 254.529 129.269C254.295 129.61 253.995 129.9 253.646 130.124C253.298 130.348 252.909 130.5 252.501 130.572Z" stroke="#142B71" stroke-linecap="round" stroke-linejoin="round"/>
<path d="M249.057 97.7579L200.544 106.629C198.851 106.939 197.731 108.556 198.042 110.242L202.692 135.449C203.003 137.135 204.628 138.251 206.321 137.941L254.834 129.07C256.527 128.76 257.647 127.143 257.336 125.457L252.686 100.25C252.375 98.5638 250.75 97.4483 249.057 97.7579Z" stroke="#142B71" stroke-width="0.996394" stroke-linecap="round" stroke-linejoin="round"/>
<path d="M247.7 100.802L201.984 109.073C201.162 109.222 200.618 110.005 200.767 110.823L205.32 135.767C205.469 136.585 206.256 137.127 207.077 136.979L252.794 128.707C253.615 128.559 254.16 127.776 254.01 126.958L249.457 102.013C249.308 101.196 248.521 100.654 247.7 100.802Z" stroke="#142B71" stroke-linecap="round" stroke-linejoin="round"/>
<path d="M255.697 129.993L252.523 130.565C253.334 130.413 254.051 129.948 254.519 129.271C254.986 128.595 255.165 127.761 255.017 126.953L250.392 101.638C250.32 101.236 250.168 100.851 249.946 100.508C249.723 100.164 249.435 99.8669 249.097 99.6342C248.76 99.4015 248.379 99.2374 247.978 99.1513C247.576 99.0653 247.162 99.059 246.758 99.1328L249.954 98.5535C250.77 98.4086 251.609 98.5907 252.29 99.06C252.971 99.5294 253.438 100.248 253.589 101.059L258.213 126.374C258.359 127.186 258.176 128.022 257.705 128.7C257.233 129.378 256.512 129.843 255.697 129.993Z" stroke="#142B71" stroke-linecap="round" stroke-linejoin="round"/>
<path d="M347.607 211.085L316.316 294.653C316.316 294.653 303.228 269.826 291.137 246.85C281.48 228.479 272.458 211.251 271.241 208.716C268.513 203.005 259.196 191.044 259.196 191.044C259.196 191.044 249.637 185.597 245.262 176.11C240.886 166.623 236.073 132.686 236.073 132.686C236.073 132.686 223.506 127.977 220.507 125.915C217.507 123.854 214.771 104.805 214.771 102.631C214.771 100.457 217.794 96.1011 217.794 96.1011C217.794 96.1011 217.121 92.9113 220.96 89.6914C222.215 88.6659 223.606 87.8178 225.093 87.1711H225.169C225.169 87.1711 224.67 79.9714 228.433 77.8725C228.613 77.7712 228.8 77.6832 228.992 77.6091C232.348 76.3227 243.35 74.6601 243.35 74.6601C244.905 73.2994 246.716 72.2587 248.677 71.5981C250.627 71.064 261.327 73.5391 267.304 75.0061C269.707 75.5929 271.347 76.0142 271.347 76.0142C271.347 76.0142 281.457 76.4731 283.369 77.6091C284.703 78.4796 285.921 79.5134 286.996 80.6861L287.185 80.9043C287.185 80.9043 296.2 82.77 298.112 86.0577C300.024 89.3453 300.84 105.656 299.48 116.256C298.119 126.856 300.56 144.844 300.56 144.844C300.56 144.844 303.379 158.739 305.563 164.013C307.746 169.287 347.607 211.085 347.607 211.085Z" fill="white"/>
<path opacity="0.4" d="M291.137 246.85C281.48 228.479 272.458 211.251 271.241 208.715C268.513 203.005 259.196 191.043 259.196 191.043C259.196 191.043 249.637 185.597 245.262 176.11C240.886 166.623 236.073 132.686 236.073 132.686C236.073 132.686 223.506 127.977 220.507 125.915C217.507 123.854 214.771 104.805 214.771 102.631C214.771 100.457 217.794 96.101 217.794 96.101C217.794 96.101 217.121 92.9111 220.96 89.6912C220.96 90.5489 220.96 91.9933 220.96 94.2653C220.869 98.5761 225.97 124.569 227.232 123.779C228.494 122.989 230.443 121.085 229.929 119.408C229.929 119.408 227.459 109.319 225.124 87.1709H225.199C225.199 87.1709 224.7 79.9713 228.464 77.8723C227.816 79.4313 227.401 81.0763 227.232 82.7548C227.149 86.2606 231.335 116.301 232.975 117.061C234.615 117.82 238.771 113.818 238.771 113.818C238.771 113.818 237.35 105.294 237.856 101.661C237.856 101.661 250.498 109.334 250.876 118.046C250.914 119.002 253.34 132.656 253.34 132.656C253.34 132.656 242.466 153.27 253.566 172.078C253.566 172.078 247.922 168.707 246.576 163.351C246.576 163.351 244.937 179.104 256.596 187.425C256.596 187.425 264.961 179.247 273.221 178.209C273.221 178.209 273.372 178.751 267.84 183.091C262.309 187.432 261.561 189.366 261.561 189.366C261.561 189.366 267.546 183.347 272.329 183.091C272.329 183.091 267.395 188.771 267.546 189.96C267.697 191.149 281.654 214.907 286.732 231.48C288.802 238.402 290.215 243.397 291.137 246.85Z" fill="#92E3A9"/>
<path opacity="0.4" d="M251.949 89.1796C251.949 89.1796 255.977 92.1889 257.171 89.1796C257.856 87.5694 258.292 85.8647 258.463 84.124C258.463 84.124 260.012 83.4169 261.486 87.1333C262.959 90.8498 277.732 91.7977 281.193 93.701C284.654 95.6044 286.029 93.701 286.029 93.701C286.835 94.3606 287.388 95.2768 287.595 96.2951C287.801 97.3134 287.649 98.3715 287.163 99.2908C285.485 102.744 290.238 103.052 292.082 100.51C293.926 97.9667 292.497 107.784 287.941 108.785C287.941 108.785 288.069 113.073 285.137 116.015H287.624C287.624 116.015 281.004 121.243 279.243 121.529C277.483 121.815 285.795 124.742 284.253 125.359C282.712 125.975 278.344 125.923 278.344 125.923C278.344 125.923 281.17 127.871 281.193 129.158C281.216 130.444 279.855 131.415 279.243 130.339C278.631 129.263 273.75 113.856 271.317 108.161C268.883 102.466 258.833 97.9592 251.949 89.1796Z" fill="#92E3A9"/>
<path opacity="0.4" d="M286.989 80.6334C278.51 78.3238 267.138 75.0361 267.138 75.0361L267.296 74.9534C269.699 75.5402 271.339 75.9615 271.339 75.9615C271.339 75.9615 281.45 76.4204 283.362 77.5564C284.695 78.4269 285.914 79.4606 286.989 80.6334Z" fill="#92E3A9"/>
<path d="M275.065 93.9117C267.689 92.4071 262.422 98.6814 262.422 98.6814C262.422 98.6814 269.752 105.287 271.377 108.123C273.002 110.959 275.699 120.521 275.699 120.521C278.79 121.018 284.488 117.843 285.855 109.417C287.223 100.991 282.402 95.4088 275.065 93.9117Z" fill="#92E3A9"/>
<path d="M316.316 294.653C316.316 294.653 273.999 214.426 271.241 208.715C268.483 203.005 259.196 191.043 259.196 191.043C259.196 191.043 249.637 185.597 245.262 176.11C240.886 166.623 236.073 132.686 236.073 132.686C236.073 132.686 223.506 127.977 220.507 125.915C217.507 123.854 214.771 104.805 214.771 102.631C214.771 100.457 217.794 96.101 217.794 96.101C217.794 96.101 216.706 90.9477 225.169 87.1334C225.169 87.1334 224.625 79.2416 228.992 77.5714C232.348 76.285 243.35 74.6224 243.35 74.6224C244.905 73.2617 246.716 72.221 248.677 71.5604C251.405 70.8081 271.347 75.9765 271.347 75.9765C271.347 75.9765 281.457 76.4354 283.369 77.5714C284.767 78.4897 286.04 79.5847 287.155 80.829C287.155 80.829 296.17 82.6947 298.082 85.9824C299.993 89.27 300.81 105.58 299.449 116.18C298.089 126.781 300.53 144.768 300.53 144.768C300.53 144.768 303.349 158.664 305.532 163.938C307.716 169.211 347.607 211.085 347.607 211.085" stroke="#142B71" stroke-linecap="round" stroke-linejoin="round"/>
<path d="M280.49 131.58C280.49 131.58 278.578 131.174 276.122 122.199C273.667 113.224 273.017 109.026 267.924 103.707C264.312 99.9455 256.045 93.7991 251.949 89.1798C247.854 84.5606 243.327 80.8291 239.791 83.6879C236.965 85.9449 235.121 91.8054 237.607 100.848C240.803 112.464 250.884 117.994 250.884 117.994L253.347 132.604C253.347 132.604 242.655 153.924 254.707 174.049" stroke="#142B71" stroke-linecap="round" stroke-linejoin="round"/>
<path d="M262.385 98.6815C262.385 98.6815 267.674 92.4146 275.027 93.9118C282.379 95.4089 287.155 100.984 285.818 109.417C284.48 117.851 278.752 121.018 275.662 120.521" stroke="#142B71" stroke-linecap="round" stroke-linejoin="round"/>
<path d="M243.327 74.6074C242.223 77.3713 241.373 80.2293 240.788 83.1462" stroke="#142B71" stroke-linecap="round" stroke-linejoin="round"/>
<path d="M238.854 104.068C238.854 104.068 239.489 113.359 240.803 116.211C242.118 119.062 244.302 121.379 245.254 125.05C246.206 128.722 246.35 134.432 246.622 135.252C246.894 136.072 248.473 136.282 248.473 136.282C250.74 136.335 251.654 135.161 252.962 133.371" stroke="#142B71" stroke-linecap="round" stroke-linejoin="round"/>
<path d="M225.192 87.1184C225.192 87.1184 227.239 106.965 228.879 115.398C230.519 123.832 233.413 125.05 238.166 127.774C242.919 130.497 245.541 136.049 245.957 136.884C246.373 137.719 247.929 137.81 247.929 137.81C248.844 137.734 249.725 137.432 250.493 136.931C251.261 136.431 251.891 135.748 252.327 134.943" stroke="#142B71" stroke-linecap="round" stroke-linejoin="round"/>
<path d="M217.801 96.0859C217.287 96.8759 221.67 117.03 223.952 122.876C226.234 128.721 226.491 129.647 232.529 131.302C238.567 132.957 243.153 135.711 244.786 134.74" stroke="#142B71" stroke-linecap="round" stroke-linejoin="round"/>
<path d="M259.732 84.9368C259.732 84.9368 262.868 92.4148 260.798 97.335" stroke="#142B71" stroke-linecap="round" stroke-linejoin="round"/>
<path d="M271.339 75.9614C276.478 77.9842 281.766 79.6114 287.155 80.8289" stroke="#142B71" stroke-linecap="round" stroke-linejoin="round"/>
<path d="M292.105 101.804C292.105 101.804 289.702 106.175 286.059 107.115" stroke="#142B71" stroke-linecap="round" stroke-linejoin="round"/>
<path d="M286.052 97.0415C286.052 97.0415 285.19 99.2985 284.276 99.9229" stroke="#142B71" stroke-linecap="round" stroke-linejoin="round"/>
<path d="M289.074 114.992C289.074 114.992 283.611 119.107 278.367 120.175" stroke="#142B71" stroke-linecap="round" stroke-linejoin="round"/>
<path d="M276.122 122.207C276.122 122.207 278.389 125.058 284.276 125.329" stroke="#142B71" stroke-linecap="round" stroke-linejoin="round"/>
<path d="M258.44 109.725C258.44 109.725 263.79 104.61 266.843 105.317" stroke="#142B71" stroke-linecap="round" stroke-linejoin="round"/>
<path d="M268.914 110.764C268.914 110.764 264.863 113.773 264.123 113.773" stroke="#142B71" stroke-linecap="round" stroke-linejoin="round"/>
<path d="M227.209 126.72C227.209 126.72 228.554 126.969 229.605 125.351" stroke="#142B71" stroke-linecap="round" stroke-linejoin="round"/>
<path d="M231.992 119.393C231.992 119.393 235.242 117.392 237.365 117.008" stroke="#142B71" stroke-linecap="round" stroke-linejoin="round"/>
<path d="M260.616 187.252C261.289 186.658 267.568 181.602 271.452 179.812" stroke="#142B71" stroke-linecap="round" stroke-linejoin="round"/>
<path d="M268.763 184.86C268.317 184.724 264.75 188.441 262.868 189.93" stroke="#142B71" stroke-linecap="round" stroke-linejoin="round"/>
<path d="M270.531 195.881C270.531 195.881 282.493 218.45 285.183 227.478" stroke="#142B71" stroke-linecap="round" stroke-linejoin="round"/>
<path d="M305.563 163.968C306.575 169.512 309.862 173.597 311.661 175.809" stroke="#142B71" stroke-linecap="round" stroke-linejoin="round"/>
<path opacity="0.4" d="M267.856 96.086C266.118 97.1543 267.946 100.645 268.914 102.428C269.881 104.211 274.203 107.047 275.102 109.726C276.002 112.404 281.684 112.329 283.415 109.726C285.145 107.123 284.926 101.924 280.211 97.9668C275.495 94.0096 270.327 94.5814 267.856 96.086Z" fill="white"/>
<path d="M234.675 246.015C226.979 244.713 219.067 246.045 212.23 249.794C205.392 253.543 200.032 259.488 197.023 266.66C194.014 273.831 193.535 281.806 195.663 289.283C197.791 296.76 202.401 303.299 208.741 307.833" stroke="#142B71" stroke-linecap="round" stroke-linejoin="round"/>
<path d="M249.07 252.011C245.867 249.708 242.288 247.972 238.491 246.881" stroke="#142B71" stroke-linecap="round" stroke-linejoin="round"/>
<path d="M245.594 309.97C250.252 307.403 254.249 303.798 257.275 299.437C260.3 295.076 262.271 290.077 263.034 284.832C263.796 279.587 263.329 274.237 261.67 269.201C260.011 264.165 257.203 259.579 253.468 255.803" stroke="#142B71" stroke-linecap="round" stroke-linejoin="round"/>
<path d="M247.257 320.818L249.32 322.624L246.108 311.693" stroke="#142B71" stroke-linecap="round" stroke-linejoin="round"/>
<path d="M223.083 313.792C228.164 314.659 233.375 314.379 238.332 312.972L244.838 318.689" stroke="#142B71" stroke-linecap="round" stroke-linejoin="round"/>
<path d="M215.164 311.459C216.454 312.013 217.776 312.488 219.124 312.881" stroke="#142B71" stroke-linecap="round" stroke-linejoin="round"/>
<path d="M231.607 263.183C235.887 263.912 239.738 266.209 242.403 269.622C245.067 273.036 246.351 277.319 246.003 281.628C245.654 285.937 243.698 289.96 240.519 292.906C237.341 295.851 233.17 297.505 228.828 297.542C224.486 297.579 220.287 295.997 217.058 293.106C213.829 290.216 211.804 286.227 211.381 281.925C210.958 277.622 212.168 273.318 214.773 269.859C217.378 266.4 221.189 264.038 225.456 263.236" stroke="#142B71" stroke-linecap="round" stroke-linejoin="round"/>
<path d="M225.456 299.136C220.423 298.283 215.937 295.474 212.984 291.328C210.03 287.181 208.852 282.037 209.708 277.026" stroke="#142B71" stroke-linecap="round" stroke-linejoin="round"/>
<path d="M246.796 286.753C245.611 290.016 243.559 292.898 240.859 295.092C238.159 297.286 234.912 298.71 231.464 299.212" stroke="#142B71" stroke-linecap="round" stroke-linejoin="round"/>
<path d="M211.189 272.241C213.14 268.018 216.566 264.644 220.83 262.748C225.093 260.852 229.903 260.563 234.365 261.935C238.826 263.307 242.634 266.246 245.081 270.206C247.528 274.165 248.446 278.875 247.665 283.458" stroke="#142B71" stroke-linecap="round" stroke-linejoin="round"/>
<path d="M240.237 273.333L240.456 273.099" stroke="#142B71" stroke-width="2" stroke-linecap="round" stroke-linejoin="round"/>
<path d="M237.154 276.642L238.688 274.995" stroke="#142B71" stroke-width="2" stroke-linecap="round" stroke-linejoin="round"/>
<path d="M218.338 279.065L225.751 288.882L235.809 278.087" stroke="#142B71" stroke-width="2" stroke-linecap="round" stroke-linejoin="round"/>
</g>
<defs>
<clipPath id="clip0_449_1785">
<rect width="348" height="323" fill="white"/>
</clipPath>
</defs>
</svg>
